<?xml version="1.0" encoding="utf-8"?>
<!-- Generator: Adobe Illustrator 25.4.1, SVG Export Plug-In . SVG Version: 6.00 Build 0)  -->
<svg version="1.1" id="Camada_1" xmlns="http://www.w3.org/2000/svg" xmlns:xlink="http://www.w3.org/1999/xlink" x="0px" y="0px"
	 viewBox="0 0 101.84 118.67" style="enable-background:new 0 0 101.84 118.67;" xml:space="preserve">
<style type="text/css">
	.st0{fill:#1C3955;}
	.st1{font-family:'MyriadPro-Semibold';}
	.st2{font-size:14.04px;}
	.st3{fill:#FFFFFF;}
</style>
<g>
	<text transform="matrix(1 0 0 1 4.9245 95.4134)"><tspan x="0" y="0" class="st0 st1 st2">MARKETING DE</tspan><tspan x="0" y="16.85" class="st0 st1 st2">CONTEÚDO</tspan></text>
	<g>
		<path class="st0" d="M77.92,69.48h-61c-6.6,0-12-5.4-12-12V14.7c0-6.6,5.4-12,12-12h61c6.6,0,12,5.4,12,12v42.79
			C89.92,64.08,84.52,69.48,77.92,69.48z"/>
		<g id="XMLID_9322_">
			<g>
				<path id="XMLID_00000104687563384529033480000013241215124422867371_" class="st3" d="M32.81,29.95h20.97
					c0.34,0,0.62-0.28,0.62-0.62c0-0.34-0.28-0.62-0.62-0.62H32.81c-0.34,0-0.62,0.28-0.62,0.62
					C32.19,29.67,32.47,29.95,32.81,29.95z"/>
				<path id="XMLID_00000111907499137781377730000017450890928871626891_" class="st3" d="M53.78,45.87H32.81
					c-0.34,0-0.62,0.28-0.62,0.62c0,0.34,0.28,0.62,0.62,0.62h20.97c0.34,0,0.62-0.28,0.62-0.62C54.4,46.14,54.13,45.87,53.78,45.87
					z"/>
				<path id="XMLID_00000075885609629179130030000015946369199418095036_" class="st3" d="M75.62,18.02
					c-0.01-0.01-0.03-0.03-0.04-0.04c-0.81-0.81-1.71-1.22-2.66-1.22c-1.48,0.01-2.54,1.04-2.62,1.12l-8.09,8.09
					c-0.12,0.12-0.18,0.28-0.18,0.44c0,0.05,0.01,0.11,0.02,0.16l-0.48,0.48l-0.22-0.22l-0.85,0.85V16.59H26.09v39H60.5V38.36
					l6.19-6.19l-0.22-0.22l0.48-0.48c0.05,0.01,0.11,0.02,0.16,0.02c0.16,0,0.32-0.06,0.44-0.18l7.98-7.98
					c0.05-0.05,1.21-1.17,1.23-2.73C76.78,19.68,76.4,18.81,75.62,18.02z M59.26,39.6v14.74H27.33V17.84h31.92v11.09l-6.95,6.95
					l0.5,0.5l-0.17,0.97H32.81c-0.34,0-0.62,0.28-0.62,0.62c0,0.34,0.28,0.62,0.62,0.62h19.61l-0.53,3.05l5.27-0.91l0.48,0.48
					L59.26,39.6l0.62-0.62L59.26,39.6z M53.51,41.03l-1.15,0.22l-0.08,0.01l0.22-1.25l0.27,0.27l0.58-3.36l3.28,3.28l-3.36,0.58
					L53.51,41.03z M57.64,39.45l-3.57-3.57l7.28-7.28l3.57,3.57L57.64,39.45z M65.81,31.73l-4.01-4.02l0.41-0.41l4.02,4.02
					L65.81,31.73z M74.66,22.44l-7.55,7.55l-3.58-3.57l7.65-7.65c0,0,0,0,0,0c0.01-0.01,0.76-0.75,1.74-0.75
					c0.61,0,1.19,0.28,1.76,0.84c0.01,0.01,0.02,0.03,0.03,0.03c0.53,0.54,0.8,1.11,0.79,1.7C75.5,21.61,74.68,22.42,74.66,22.44z"
					/>
				<path id="XMLID_00000047743694081065022420000005452798498216119713_" class="st3" d="M62.19,24.38c0.21,0.21,0.56,0.21,0.77,0
					l5.74-5.74c0.21-0.21,0.21-0.56,0-0.77l-0.01-0.01c-0.21-0.21-0.56-0.21-0.77,0l-5.74,5.74C61.97,23.81,61.97,24.15,62.19,24.38
					L62.19,24.38z"/>
			</g>
		</g>
	</g>
</g>
</svg>
