<?xml version="1.0" encoding="utf-8"?>
<!-- Generator: Adobe Illustrator 25.4.1, SVG Export Plug-In . SVG Version: 6.00 Build 0)  -->
<svg version="1.1" id="Camada_1" xmlns="http://www.w3.org/2000/svg" xmlns:xlink="http://www.w3.org/1999/xlink" x="0px" y="0px"
	 viewBox="0 0 91.2 118.67" style="enable-background:new 0 0 91.2 118.67;" xml:space="preserve">
<style type="text/css">
	.st0{fill:#1C3955;}
	.st1{font-family:'MyriadPro-Semibold';}
	.st2{font-size:14.04px;}
	.st3{fill:#FFFFFF;}
</style>
<g>
	<text transform="matrix(1 0 0 1 2.8952 95.6182)"><tspan x="0" y="0" class="st0 st1 st2">MARKETING</tspan><tspan x="0" y="16.85" class="st0 st1 st2">DIGITAL</tspan></text>
	<g>
		<g>
			<path class="st0" d="M75.9,69.69h-61c-6.6,0-12-5.4-12-12V14.9c0-6.6,5.4-12,12-12h61c6.6,0,12,5.4,12,12v42.79
				C87.9,64.29,82.5,69.69,75.9,69.69z"/>
		</g>
		<g id="XMLID_10356_">
			<g>
				<path id="XMLID_00000057119160355910763340000017982245016402127490_" class="st3" d="M61.26,14.85
					c-0.15-0.38-0.58-0.57-0.96-0.43s-0.57,0.58-0.42,0.96l2.15,5.55c0.01,0.02,0.02,0.04,0.03,0.06l-1.58,1.58l-1.94-5.17
					c-0.14-0.38-0.57-0.58-0.96-0.44c-0.38,0.14-0.58,0.57-0.43,0.96l2.15,5.73c0.01,0.03,0.03,0.05,0.04,0.07l-3.75,3.75
					c-3.16-2.9-7.36-4.68-11.98-4.68c-9.77,0-17.71,7.95-17.71,17.71c0,9.77,7.95,17.71,17.71,17.71c9.77,0,17.71-7.95,17.71-17.71
					c0-4.62-1.78-8.83-4.68-11.98l3.33-3.33c0.12,0.17,0.3,0.29,0.52,0.31l6.98,0.77c0.03,0,0.05,0,0.08,0
					c0.37,0,0.7-0.28,0.74-0.66c0.04-0.41-0.25-0.77-0.66-0.82l-6.54-0.72L63,22.15c0.03,0.01,0.06,0.02,0.1,0.02l6.98,0.77
					c0.03,0,0.06,0,0.08,0c0.37,0,0.7-0.28,0.74-0.66c0.05-0.41-0.25-0.78-0.66-0.82l-5.9-0.65l3.58-3.58
					c0.29-0.29,0.29-0.76,0-1.05c-0.29-0.29-0.76-0.29-1.05,0l-3.67,3.67L61.26,14.85z M59.83,40.5c0,8.95-7.28,16.23-16.23,16.23
					c-8.95,0-16.23-7.28-16.23-16.23c0-8.95,7.28-16.23,16.23-16.23c4.21,0,8.05,1.61,10.93,4.25l-3.51,3.51
					c-1.98-1.74-4.58-2.8-7.42-2.8c-6.22,0-11.28,5.06-11.28,11.28c0,6.22,5.06,11.28,11.28,11.28c6.22,0,11.28-5.06,11.28-11.28
					c0-2.84-1.06-5.44-2.8-7.42l3.51-3.51C58.22,32.46,59.83,36.3,59.83,40.5z M43.07,41.03c0.14,0.15,0.33,0.22,0.53,0.22
					c0.19,0,0.38-0.07,0.53-0.22l2.29-2.29c0.32,0.51,0.51,1.11,0.51,1.76c0,1.83-1.49,3.32-3.33,3.32c-1.83,0-3.32-1.49-3.32-3.32
					c0-1.83,1.49-3.32,3.32-3.32c0.65,0,1.25,0.19,1.76,0.51l-2.29,2.29C42.78,40.27,42.78,40.74,43.07,41.03z M46.43,36.62
					c-0.8-0.58-1.77-0.93-2.83-0.93c-2.65,0-4.81,2.16-4.81,4.81c0,2.65,2.16,4.81,4.81,4.81c2.65,0,4.81-2.16,4.81-4.81
					c0-1.06-0.35-2.04-0.93-2.83l3.54-3.54c1.47,1.71,2.37,3.94,2.37,6.37c0,5.4-4.39,9.79-9.79,9.79c-5.4,0-9.79-4.39-9.79-9.79
					c0-5.4,4.39-9.79,9.79-9.79c2.43,0,4.66,0.89,6.37,2.37L46.43,36.62z"/>
			</g>
		</g>
	</g>
</g>
</svg>
