<?xml version="1.0" encoding="utf-8"?>
<!-- Generator: Adobe Illustrator 25.4.1, SVG Export Plug-In . SVG Version: 6.00 Build 0)  -->
<svg version="1.1" id="Camada_1" xmlns="http://www.w3.org/2000/svg" xmlns:xlink="http://www.w3.org/1999/xlink" x="0px" y="0px"
	 viewBox="0 0 139.79 99.4" style="enable-background:new 0 0 139.79 99.4;" xml:space="preserve">
<style type="text/css">
	.st0{fill:#1C3955;}
	.st1{font-family:'MyriadPro-Semibold';}
	.st2{font-size:14.04px;}
	.st3{fill:#FFFFFF;}
</style>
<g>
	<text transform="matrix(1 0 0 1 1.8498 95.0059)" class="st0 st1 st2">MÉTRICAS E ANÁLISES</text>
	<g>
		<path class="st0" d="M74.85,69.08h-61c-6.6,0-12-5.4-12-12V14.29c0-6.6,5.4-12,12-12h61c6.6,0,12,5.4,12,12v42.79
			C86.85,63.68,81.45,69.08,74.85,69.08z"/>
		<g id="XMLID_8989_">
			<path id="XMLID_8996_" class="st3" d="M43.7,33.41c0.27-0.11,0.45-0.37,0.45-0.66V15.31c0-0.39-0.32-0.71-0.71-0.71
				c-4.73,0-9.22,1.82-12.62,5.12c-0.14,0.13-0.21,0.31-0.22,0.5c0,0.19,0.07,0.37,0.2,0.51l12.13,12.52
				c0.14,0.14,0.32,0.22,0.51,0.22C43.53,33.46,43.62,33.44,43.7,33.41z M42.72,30.98L32.33,20.25c2.89-2.57,6.53-4.05,10.39-4.21
				V30.98z"/>
			<path id="XMLID_8993_" class="st3" d="M43.38,36.47c0.02-0.21-0.05-0.41-0.2-0.56L31.05,23.39c-0.13-0.14-0.31-0.21-0.5-0.22
				c-0.19,0-0.37,0.07-0.51,0.2c-3.56,3.45-5.52,8.08-5.52,13.03c0,3.78,1.16,7.41,3.35,10.49c0.14,0.2,0.36,0.3,0.58,0.3
				c0.14,0,0.29-0.04,0.41-0.13l14.22-10.08C43.25,36.87,43.36,36.68,43.38,36.47z M28.63,45.48c-1.76-2.71-2.68-5.83-2.68-9.08
				c0-4.32,1.62-8.38,4.59-11.5l11.04,11.4L28.63,45.48z"/>
			<path id="XMLID_8990_" class="st3" d="M64.85,35.84c-0.04-0.3-0.09-0.59-0.14-0.88v0c-0.12-0.64-0.26-1.26-0.44-1.85
				c-0.08-0.26-0.16-0.52-0.24-0.78c-0.19-0.55-0.41-1.11-0.65-1.64c-0.11-0.23-0.21-0.46-0.33-0.69c-0.25-0.5-0.53-0.99-0.82-1.47
				c-0.13-0.21-0.26-0.42-0.4-0.62c-0.34-0.5-0.71-0.99-1.1-1.45c-0.15-0.18-0.31-0.37-0.47-0.55c-0.36-0.39-0.74-0.78-1.14-1.15
				c-0.17-0.16-0.35-0.32-0.54-0.48c-0.41-0.36-0.84-0.7-1.28-1.01c-0.2-0.14-0.4-0.28-0.6-0.42c-0.48-0.32-0.96-0.61-1.43-0.86
				c-0.22-0.12-0.45-0.23-0.67-0.35c-0.58-0.28-1.18-0.54-1.79-0.76c-0.25-0.09-0.51-0.18-0.76-0.26c-0.59-0.19-1.21-0.34-1.83-0.47
				c-0.29-0.06-0.57-0.11-0.86-0.15c-0.68-0.1-1.38-0.17-2.09-0.2c-0.25-0.01-0.49-0.02-0.74-0.02c-0.58,0-1.06,0.48-1.06,1.06
				v16.89l-13.77,9.76c-0.23,0.16-0.39,0.41-0.43,0.69c-0.05,0.28,0.02,0.56,0.18,0.79l0.07,0.09c0.3,0.42,0.63,0.83,1.02,1.28
				c0.16,0.18,0.32,0.36,0.48,0.54c0.36,0.38,0.75,0.76,1.16,1.14c0.18,0.16,0.36,0.32,0.55,0.47c0.51,0.42,0.98,0.78,1.45,1.1
				c0.17,0.12,0.35,0.22,0.52,0.33l0.1,0.06c0.48,0.3,0.97,0.57,1.47,0.83c0.23,0.11,0.46,0.22,0.69,0.33
				c0.51,0.23,1.04,0.44,1.65,0.65c0.26,0.09,0.51,0.17,0.77,0.25c0.64,0.19,1.25,0.33,1.85,0.45c0.29,0.05,0.59,0.1,0.88,0.13
				c0.8,0.11,1.6,0.16,2.37,0.16c0.01,0,0.06,0,0.07,0c0.33,0,0.67-0.01,0.99-0.03c0.87-0.05,1.76-0.16,2.62-0.33
				c0.44-0.09,0.87-0.19,1.34-0.32c1.34-0.37,2.64-0.9,3.85-1.55c1.21-0.66,2.36-1.46,3.41-2.39c0.59-0.52,1.15-1.08,1.65-1.65
				c0.93-1.05,1.73-2.2,2.39-3.41c0.66-1.21,1.18-2.5,1.55-3.85c0.13-0.47,0.24-0.91,0.32-1.34c0.17-0.86,0.28-1.74,0.33-2.62
				c0.02-0.33,0.03-0.66,0.03-0.99l0-0.05C65.02,37.45,64.96,36.65,64.85,35.84z M63.57,39.19c-0.04,0.81-0.15,1.63-0.3,2.42
				c-0.08,0.4-0.18,0.8-0.3,1.24c-0.35,1.24-0.83,2.44-1.43,3.55c-0.61,1.12-1.35,2.17-2.21,3.15c-0.47,0.53-0.98,1.05-1.53,1.53
				c-0.97,0.86-2.03,1.6-3.15,2.21c-1.11,0.61-2.31,1.09-3.55,1.43c-0.43,0.12-0.84,0.22-1.24,0.3c-0.8,0.16-1.61,0.26-2.42,0.3
				c-0.3,0.02-0.61,0.03-0.91,0.03c-0.01,0-0.04,0-0.05,0c-0.72,0-1.46-0.05-2.2-0.15c-0.27-0.04-0.54-0.07-0.81-0.12
				c-0.55-0.1-1.11-0.24-1.71-0.41c-0.24-0.07-0.48-0.15-0.71-0.23c-0.56-0.19-1.06-0.39-1.52-0.6c-0.21-0.1-0.43-0.2-0.63-0.3
				c-0.46-0.23-0.91-0.49-1.36-0.76l-0.11-0.07c-0.16-0.1-0.32-0.2-0.47-0.3c-0.43-0.29-0.87-0.62-1.34-1.01
				c-0.17-0.14-0.34-0.29-0.5-0.44c-0.38-0.34-0.74-0.69-1.07-1.05c-0.15-0.16-0.3-0.33-0.44-0.49c-0.29-0.34-0.55-0.65-0.78-0.97
				l13.77-9.76c0.19-0.13,0.3-0.35,0.3-0.58V21.21c0.11,0,0.21,0.01,0.32,0.01c0.66,0.03,1.31,0.09,1.93,0.18
				c0.27,0.04,0.53,0.09,0.8,0.14c0.57,0.12,1.14,0.26,1.68,0.43c0.24,0.07,0.47,0.15,0.7,0.24c0.56,0.2,1.12,0.44,1.65,0.7
				c0.21,0.1,0.42,0.21,0.62,0.32c0.44,0.23,0.88,0.5,1.32,0.8c0.19,0.12,0.37,0.25,0.55,0.38c0.41,0.29,0.8,0.61,1.18,0.93
				c0.17,0.14,0.33,0.29,0.5,0.44c0.37,0.34,0.72,0.7,1.05,1.07c0.15,0.17,0.29,0.33,0.44,0.5c0.36,0.43,0.7,0.88,1.01,1.34
				c0.13,0.19,0.25,0.38,0.37,0.57c0.27,0.44,0.53,0.9,0.76,1.36c0.11,0.21,0.21,0.42,0.3,0.64c0.22,0.49,0.42,1,0.6,1.52
				c0.08,0.24,0.16,0.47,0.23,0.72c0.16,0.54,0.3,1.12,0.4,1.71c0.05,0.27,0.09,0.54,0.13,0.81c0.1,0.75,0.15,1.49,0.15,2.2l0,0.05
				C63.59,38.58,63.58,38.89,63.57,39.19z"/>
		</g>
	</g>
</g>
</svg>
