<?xml version="1.0" encoding="utf-8"?>
<!-- Generator: Adobe Illustrator 25.4.1, SVG Export Plug-In . SVG Version: 6.00 Build 0)  -->
<svg version="1.1" id="Camada_1" xmlns="http://www.w3.org/2000/svg" xmlns:xlink="http://www.w3.org/1999/xlink" x="0px" y="0px"
	 viewBox="0 0 91.2 116.26" style="enable-background:new 0 0 91.2 116.26;" xml:space="preserve">
<style type="text/css">
	.st0{fill:#1C3955;}
	.st1{font-family:'MyriadPro-Semibold';}
	.st2{font-size:14.04px;}
	.st3{fill:#FFFFFF;}
</style>
<g>
	<text transform="matrix(1 0 0 1 3.0964 94.2166)"><tspan x="0" y="0" class="st0 st1 st2">MÍDIAS</tspan><tspan x="0" y="16.85" class="st0 st1 st2">SOCIAIS</tspan></text>
	<g>
		<g>
			<path class="st0" d="M76.1,68.29h-61c-6.6,0-12-5.4-12-12V13.5c0-6.6,5.4-12,12-12h61c6.6,0,12,5.4,12,12v42.79
				C88.1,62.89,82.7,68.29,76.1,68.29z"/>
		</g>
		<g id="XMLID_9155_">
			<path id="XMLID_9166_" class="st3" d="M58.8,52.95c0.01-0.17,0.11-4.24-2.45-6.59c-0.25-0.23-0.63-0.25-0.9-0.04
				c-0.11,0.09-2.81,2.08-5.36,0.01c-0.27-0.22-0.65-0.21-0.91,0.01c-0.04,0.03-0.37,0.33-0.78,0.88c-0.39-0.61-0.86-1.18-1.43-1.7
				c-0.25-0.23-0.63-0.25-0.9-0.04c-0.17,0.13-4.21,3.13-8.04,0c-0.27-0.22-0.65-0.21-0.91,0.01c-0.15,0.13-3.58,3.18-3.66,9.19
				c0,0.19,0.07,0.37,0.2,0.5c0.13,0.13,0.31,0.21,0.5,0.21l15.52,0c0.38,0,0.69-0.3,0.71-0.68c0-0.06,0.01-0.46-0.03-1.08l7.74,0
				C58.48,53.63,58.79,53.33,58.8,52.95z M34.89,53.98c0.25-3.76,1.97-6.12,2.76-7.02c3.67,2.55,7.41,0.78,8.75-0.03
				c2.08,2.24,2.48,5.61,2.56,7.04L34.89,53.98z M50.2,52.22c-0.17-1.06-0.47-2.35-1.04-3.61c0.21-0.33,0.41-0.61,0.57-0.8
				c2.27,1.47,4.69,0.78,6.05-0.02c1.21,1.4,1.52,3.39,1.59,4.43L50.2,52.22z"/>
			<path id="XMLID_9163_" class="st3" d="M51.49,28h-5.5v1.73c0,0.87,0.7,1.57,1.57,1.57h4.89l1.39,1.6c0.1,0.12,0.25,0.18,0.4,0.18
				c0.07,0,0.14-0.01,0.2-0.04c0.21-0.09,0.34-0.3,0.32-0.53l-0.1-1.21h2.51c0.87,0,1.57-0.7,1.57-1.57v-6.2
				c0-0.87-0.7-1.57-1.57-1.57h-3.43v3.77C53.76,26.98,52.75,28,51.49,28z M53.89,25.76v-2.74h3.3c0.28,0,0.51,0.23,0.51,0.51v6.2
				c0,0.28-0.23,0.51-0.51,0.51H54.1c-0.15,0-0.29,0.06-0.39,0.17c-0.1,0.11-0.15,0.25-0.14,0.4L53.59,31l-0.5-0.57
				c-0.1-0.12-0.25-0.18-0.4-0.18h-5.13c-0.28,0-0.51-0.23-0.51-0.51v-1.65h4.52C52.85,28.08,53.89,27.04,53.89,25.76z"/>
			<path id="XMLID_9160_" class="st3" d="M32.39,25.73c0,1.25,1.02,2.27,2.27,2.27h6.11l-0.17,2.19c-0.02,0.26,0.13,0.51,0.37,0.61
				c0.08,0.03,0.16,0.05,0.24,0.05c0.17,0,0.34-0.07,0.46-0.21L43.96,28h2.03h5.5c1.25,0,2.27-1.02,2.27-2.27v-3.77v-5.29
				c0-1.25-1.02-2.27-2.27-2.27H34.66c-1.25,0-2.27,1.02-2.27,2.27V25.73z M33.61,16.67c0-0.58,0.47-1.05,1.05-1.05h16.83
				c0.58,0,1.05,0.47,1.05,1.05v9.06c0,0.58-0.47,1.05-1.05,1.05h-7.81c-0.18,0-0.34,0.08-0.46,0.21l-1.26,1.45l0.08-1.01
				c0.01-0.17-0.04-0.34-0.16-0.46c-0.12-0.12-0.28-0.2-0.45-0.2h-6.77c-0.58,0-1.05-0.47-1.05-1.05V16.67z"/>
			<path id="XMLID_9156_" class="st3" d="M52.67,46.31L52.67,46.31c1.3,0,2.51-0.51,3.43-1.42c0.92-0.92,1.42-2.14,1.42-3.43
				c0-2.68-2.18-4.85-4.85-4.85c-1.3,0-2.51,0.51-3.43,1.42c-0.28,0.28-0.51,0.59-0.71,0.91c0.02-0.22,0.03-0.44,0.03-0.66
				c0-3.66-2.98-6.64-6.64-6.64c-1.77,0-3.44,0.69-4.7,1.95c-1.26,1.26-1.95,2.92-1.95,4.7c0,3.66,2.98,6.64,6.64,6.64h0
				c1.77,0,3.44-0.69,4.69-1.95c0.5-0.5,0.9-1.06,1.21-1.66c0,0.05-0.01,0.1-0.01,0.15C47.82,44.13,50,46.31,52.67,46.31z
				 M50.24,39.02c0.65-0.65,1.52-1.01,2.43-1.01c1.9,0,3.44,1.54,3.44,3.44c0,0.92-0.36,1.78-1.01,2.43
				c-0.65,0.65-1.51,1.01-2.43,1.01h0c-1.9,0-3.44-1.54-3.44-3.44C49.23,40.54,49.59,39.68,50.24,39.02z M45.62,41.98
				c-0.99,0.99-2.3,1.53-3.7,1.53h0c-2.88,0-5.23-2.35-5.23-5.23c0-1.4,0.54-2.71,1.53-3.7c0.99-0.99,2.3-1.53,3.7-1.53
				c2.88,0,5.23,2.35,5.23,5.23C47.15,39.67,46.61,40.99,45.62,41.98z"/>
		</g>
	</g>
</g>
</svg>
