<?xml version="1.0" encoding="utf-8"?>
<!-- Generator: Adobe Illustrator 25.4.1, SVG Export Plug-In . SVG Version: 6.00 Build 0)  -->
<svg version="1.1" id="Camada_1" xmlns="http://www.w3.org/2000/svg" xmlns:xlink="http://www.w3.org/1999/xlink" x="0px" y="0px"
	 viewBox="0 0 34.37 33.33" style="enable-background:new 0 0 34.37 33.33;" xml:space="preserve">
<style type="text/css">
	.st0{fill:url(#SVGID_1_);}
	.st1{fill-rule:evenodd;clip-rule:evenodd;fill:url(#SVGID_00000013914575121308317130000007181320123804086681_);}
</style>
<g>
	<linearGradient id="SVGID_1_" gradientUnits="userSpaceOnUse" x1="27.1483" y1="30.7724" x2="5.0961" y2="8.7202">
		<stop  offset="0" style="stop-color:#69B75B"/>
		<stop  offset="3.057122e-03" style="stop-color:#69B65C"/>
		<stop  offset="0.2" style="stop-color:#479477"/>
		<stop  offset="0.3906" style="stop-color:#307881"/>
		<stop  offset="0.5705" style="stop-color:#226283"/>
		<stop  offset="0.737" style="stop-color:#1C5382"/>
		<stop  offset="0.8852" style="stop-color:#194A81"/>
		<stop  offset="1" style="stop-color:#184781"/>
	</linearGradient>
	<path class="st0" d="M1.88,31.71l2.2-8.21c-1.25-2.25-1.9-4.77-1.9-7.32c0-8.36,6.8-15.16,15.16-15.16
		c8.36,0,15.16,6.8,15.16,15.16c0,8.36-6.8,15.16-15.16,15.16c-2.51,0-4.99-0.63-7.2-1.84L1.88,31.71z M10.54,26.42l0.52,0.31
		c1.91,1.14,4.08,1.74,6.27,1.74c6.78,0,12.29-5.51,12.29-12.29c0-6.78-5.51-12.29-12.29-12.29c-6.78,0-12.29,5.51-12.29,12.29
		c0,2.24,0.62,4.44,1.8,6.37l0.32,0.52l-1.23,4.58L10.54,26.42z"/>
	
		<linearGradient id="SVGID_00000150077037399109453350000000022543584734944646_" gradientUnits="userSpaceOnUse" x1="28.8682" y1="29.0526" x2="6.8158" y2="7.0003">
		<stop  offset="0" style="stop-color:#69B75B"/>
		<stop  offset="3.057122e-03" style="stop-color:#69B65C"/>
		<stop  offset="0.2" style="stop-color:#479477"/>
		<stop  offset="0.3906" style="stop-color:#307881"/>
		<stop  offset="0.5705" style="stop-color:#226283"/>
		<stop  offset="0.737" style="stop-color:#1C5382"/>
		<stop  offset="0.8852" style="stop-color:#194A81"/>
		<stop  offset="1" style="stop-color:#184781"/>
	</linearGradient>
	<path style="fill-rule:evenodd;clip-rule:evenodd;fill:url(#SVGID_00000150077037399109453350000000022543584734944646_);" d="
		M22.97,18.29c-0.62-0.37-1.44-0.79-2.17-0.49c-0.56,0.23-0.92,1.11-1.29,1.56c-0.19,0.23-0.41,0.27-0.7,0.15
		c-2.12-0.84-3.74-2.26-4.91-4.2c-0.2-0.3-0.16-0.54,0.08-0.82c0.35-0.42,0.8-0.89,0.89-1.45c0.1-0.56-0.17-1.21-0.4-1.71
		c-0.3-0.64-0.63-1.55-1.26-1.91c-0.59-0.33-1.36-0.15-1.88,0.28c-0.9,0.73-1.34,1.89-1.32,3.03c0,0.32,0.04,0.65,0.12,0.96
		c0.18,0.75,0.53,1.45,0.92,2.12c0.3,0.5,0.62,0.99,0.96,1.46c1.13,1.54,2.54,2.87,4.17,3.87c0.81,0.5,1.69,0.94,2.6,1.24
		c1.02,0.34,1.93,0.69,3.03,0.48c1.15-0.22,2.29-0.93,2.75-2.04c0.14-0.33,0.2-0.69,0.13-1.04C24.52,19.06,23.55,18.63,22.97,18.29z
		"/>
</g>
</svg>
