<?xml version="1.0" encoding="utf-8"?>
<!-- Generator: Adobe Illustrator 25.4.1, SVG Export Plug-In . SVG Version: 6.00 Build 0)  -->
<svg version="1.1" id="Camada_1" xmlns="http://www.w3.org/2000/svg" xmlns:xlink="http://www.w3.org/1999/xlink" x="0px" y="0px"
	 viewBox="0 0 91.2 100.4" style="enable-background:new 0 0 91.2 100.4;" xml:space="preserve">
<style type="text/css">
	.st0{fill:#1C3955;}
	.st1{fill:#FFFFFF;}
	.st2{font-family:'MyriadPro-Semibold';}
	.st3{font-size:14.04px;}
</style>
<g>
	<g>
		<path class="st0" d="M76.1,69.68h-61c-6.6,0-12-5.4-12-12V14.89c0-6.6,5.4-12,12-12h61c6.6,0,12,5.4,12,12v42.79
			C88.1,64.28,82.7,69.68,76.1,69.68z"/>
		<g id="XMLID_9208_">
			<g>
				<path id="XMLID_00000031896824436683776020000009976811823751481786_" class="st1" d="M26.37,22.59l3.09,1.7l4.58,18.3
					l-2.16,1.7c-0.51,0.41-0.81,1.02-0.81,1.67v3.21c0,1.16,0.94,2.12,2.1,2.13l2.13,0.03c-0.11,0.33-0.16,0.69-0.16,1.05
					c0,1.88,1.53,3.41,3.41,3.41c1.88,0,3.41-1.53,3.41-3.41c0-0.33-0.05-0.65-0.14-0.96l14.14,0.2c-0.06,0.25-0.09,0.5-0.09,0.76
					c0,1.88,1.53,3.41,3.41,3.41c1.88,0,3.41-1.53,3.41-3.41c0-0.22-0.02-0.45-0.07-0.66l0.93,0.01c1.16,0,2.11-0.94,2.13-2.1
					c0.01-0.57-0.21-1.11-0.6-1.51c-0.4-0.41-0.93-0.64-1.5-0.65l-28.26-0.4v-0.07l1.5-1.18c0.14,0.02,0.27,0.03,0.41,0.03
					l23.12,0.21c1.45,0,2.69-0.99,3.01-2.4l3-13.04c0.38-1.66-0.66-3.32-2.32-3.7h0c-1.66-0.38-3.32,0.66-3.71,2.32L57.9,39.85
					l-18.21-0.17l-4.55-18.21c-0.21-0.83-0.76-1.54-1.51-1.96l-4.28-2.35c-1.49-0.82-3.38-0.27-4.2,1.22
					C24.33,19.88,24.87,21.77,26.37,22.59z M26.63,19.2c0.37-0.68,1.22-0.92,1.9-0.55L32.81,21c0.34,0.19,0.59,0.51,0.68,0.89
					l4.71,18.84c0.09,0.37,0.43,0.64,0.81,0.64l19.55,0.18c0.4-0.02,0.74-0.27,0.83-0.66l2.59-11.28c0.17-0.75,0.93-1.22,1.68-1.05
					c0.75,0.17,1.22,0.92,1.05,1.67l-3,13.04c-0.15,0.64-0.71,1.09-1.38,1.09l-23.09-0.21c-0.12,0-0.24-0.02-0.38-0.06
					c-0.26-0.08-0.55-0.02-0.77,0.15l-2.13,1.68c-0.2,0.16-0.32,0.41-0.32,0.67v1.32c0,0.46,0.37,0.84,0.83,0.85l29.1,0.41
					c0.12,0,0.23,0.05,0.31,0.13C63.92,49.34,64,49.44,64,49.6c0,0.24-0.2,0.43-0.44,0.43L61.35,50c-0.33,0-0.62,0.18-0.77,0.46
					c-0.15,0.29-0.12,0.63,0.08,0.89c0.23,0.3,0.35,0.66,0.35,1.02c0,0.95-0.77,1.72-1.72,1.72c-0.95,0-1.72-0.77-1.72-1.72
					c0-0.48,0.21-0.84,0.38-1.06c0.2-0.25,0.24-0.6,0.1-0.89c-0.14-0.29-0.43-0.48-0.75-0.48L40.36,49.7c0,0-0.01,0-0.01,0
					c-0.34,0-0.65,0.2-0.78,0.52c-0.13,0.32-0.06,0.69,0.18,0.93c0.33,0.33,0.51,0.76,0.51,1.22c0,0.95-0.77,1.72-1.72,1.72
					c-0.95,0-1.72-0.77-1.72-1.72c0-0.48,0.2-0.92,0.55-1.25c0.25-0.24,0.34-0.6,0.21-0.92c-0.12-0.32-0.43-0.54-0.78-0.54
					l-3.62-0.05c-0.24,0-0.43-0.2-0.43-0.44v-3.21c0-0.13,0.06-0.26,0.17-0.34l2.58-2.04c0.26-0.21,0.38-0.55,0.3-0.87l-4.8-19.19
					c-0.06-0.23-0.21-0.42-0.41-0.54l-3.42-1.88C26.51,20.73,26.26,19.88,26.63,19.2z"/>
				<path id="XMLID_00000081632260587591656520000007551366954942275756_" class="st1" d="M50.71,20.42h-4.02
					c-1.21,0-2.19,0.98-2.19,2.19v5.19h-1.24c-0.77,0-1.37,0.31-1.65,0.86c-0.28,0.55-0.17,1.22,0.29,1.84l5.11,6.86
					c0.42,0.57,1.04,0.9,1.68,0.9c0.65,0,1.26-0.33,1.68-0.9l5.11-6.86c0.46-0.62,0.57-1.29,0.29-1.84
					c-0.28-0.55-0.88-0.86-1.65-0.86H52.9v-5.19C52.9,21.4,51.91,20.42,50.71,20.42z M54.13,29.49l-5.11,6.86
					c-0.2,0.27-0.44,0.27-0.65,0l-5.11-6.86h2.08c0.47,0,0.85-0.38,0.85-0.85v-6.04c0-0.27,0.22-0.49,0.49-0.49h4.02
					c0.27,0,0.49,0.22,0.49,0.49v6.04c0,0.47,0.38,0.85,0.85,0.85H54.13z"/>
			</g>
		</g>
	</g>
	<text transform="matrix(1 0 0 1 3.1042 95.6083)" class="st0 st2 st3">E-COMMERCE</text>
</g>
</svg>
