<?xml version="1.0" encoding="utf-8"?>
<!-- Generator: Adobe Illustrator 25.4.1, SVG Export Plug-In . SVG Version: 6.00 Build 0)  -->
<svg version="1.1" id="Camada_1" xmlns="http://www.w3.org/2000/svg" xmlns:xlink="http://www.w3.org/1999/xlink" x="0px" y="0px"
	 viewBox="0 0 158.87 130.32" style="enable-background:new 0 0 158.87 130.32;" xml:space="preserve">
<style type="text/css">
	.st0{fill:#1C3955;}
	.st1{fill:#FFFFFF;stroke:#FFFFFF;stroke-width:0.25;stroke-miterlimit:10;}
	.st2{fill:#FFFFFF;}
	.st3{font-family:'MyriadPro-Semibold';}
	.st4{font-size:14.04px;}
</style>
<g>
	<g>
		<path class="st0" d="M82.11,73.59h-61c-6.6,0-12-5.4-12-12V18.8c0-6.6,5.4-12,12-12h61c6.6,0,12,5.4,12,12v42.79
			C94.11,68.19,88.71,73.59,82.11,73.59z"/>
		<g>
			<g id="XMLID_11424_">
				<g>
					<path id="XMLID_00000133509218979693149630000008798918853810053030_" class="st1" d="M24.77,50.06H54
						c0.37,0,0.66-0.3,0.66-0.66V26.55c0-0.37-0.3-0.66-0.66-0.66H24.77c-0.37,0-0.66,0.3-0.66,0.66V49.4
						C24.11,49.77,24.4,50.06,24.77,50.06z M25.43,27.21h27.9v21.52h-27.9V27.21z"/>
					<path id="XMLID_00000183942592215350637300000005627159578146148249_" class="st1" d="M50.49,28.63H28.28
						c-0.37,0-0.66,0.3-0.66,0.66v14.97c0,0.37,0.3,0.66,0.66,0.66h22.21c0.37,0,0.66-0.3,0.66-0.66V29.29
						C51.15,28.92,50.86,28.63,50.49,28.63z M49.82,43.6H28.95V29.96h20.88V43.6z"/>
					<path id="XMLID_00000044173666379471461960000011571375676302501539_" class="st1" d="M39.39,45.45
						c-0.79,0-1.43,0.64-1.43,1.43c0,0.79,0.64,1.43,1.43,1.43c0.79,0,1.43-0.64,1.43-1.43C40.81,46.09,40.17,45.45,39.39,45.45z
						 M39.39,47.51c-0.35,0-0.63-0.28-0.63-0.63s0.28-0.63,0.63-0.63s0.63,0.28,0.63,0.63S39.73,47.51,39.39,47.51z"/>
					<path id="XMLID_00000102505860803550483670000008545979509069589135_" class="st1" d="M47.06,54.51c0.37,0,0.66-0.3,0.66-0.66
						v-2.32c0-0.37-0.3-0.66-0.66-0.66H31.71c-0.37,0-0.66,0.3-0.66,0.66v2.32c0,0.37,0.3,0.66,0.66,0.66H47.06z M32.38,52.19H46.4
						v0.99H32.38V52.19z"/>
				</g>
			</g>
			<g id="XMLID_10646_">
				<g>
					<path id="XMLID_00000093153512190439143990000007702902145833222820_" class="st2" d="M76.77,26.45H62.81
						c-1.29,0-2.33,1.05-2.33,2.33v22.83c0,1.29,1.05,2.33,2.33,2.33h13.96c1.29,0,2.33-1.05,2.33-2.33V28.78
						C79.11,27.49,78.06,26.45,76.77,26.45z M78.11,51.61c0,0.74-0.6,1.34-1.34,1.34H62.81c-0.74,0-1.34-0.6-1.34-1.34V28.78
						c0-0.74,0.6-1.34,1.34-1.34h13.96c0.74,0,1.34,0.6,1.34,1.34V51.61z"/>
					<path id="XMLID_00000145027427045843000240000006419704722387196037_" class="st2" d="M69.79,28.08c0.14,0,0.26-0.11,0.26-0.26
						c0-0.14-0.12-0.26-0.26-0.26c-0.14,0-0.26,0.11-0.26,0.26C69.53,27.96,69.65,28.08,69.79,28.08z"/>
					<path id="XMLID_00000075127824107191690800000011975631497687525817_" class="st2" d="M68.83,29.11h1.93
						c0.14,0,0.26-0.11,0.26-0.26c0-0.14-0.11-0.26-0.26-0.26h-1.93c-0.14,0-0.26,0.11-0.26,0.26C68.57,29,68.69,29.11,68.83,29.11z
						"/>
					<path id="XMLID_00000054261819575076034220000002675754026714651028_" class="st2" d="M67.97,29.06c0.11,0,0.2-0.09,0.2-0.2
						c0-0.11-0.09-0.2-0.2-0.2c-0.11,0-0.2,0.09-0.2,0.2C67.77,28.97,67.86,29.06,67.97,29.06z"/>
					<path id="XMLID_00000080915115573524905450000014194783790921675412_" class="st2" d="M69.79,49.69
						c-0.85,0-1.53,0.69-1.53,1.54c0,0.85,0.69,1.53,1.53,1.53c0.85,0,1.53-0.69,1.53-1.53C71.33,50.38,70.64,49.69,69.79,49.69z
						 M69.79,52.26c-0.57,0-1.04-0.46-1.04-1.04c0-0.57,0.47-1.04,1.04-1.04c0.57,0,1.04,0.47,1.04,1.04
						C70.83,51.8,70.36,52.26,69.79,52.26z"/>
					<path id="XMLID_00000065754885246376903770000010168389692635109055_" class="st2" d="M76.34,29.69h-13.1
						c-0.14,0-0.25,0.11-0.25,0.25v19.4c0,0.14,0.11,0.25,0.25,0.25h13.1c0.14,0,0.25-0.11,0.25-0.25v-19.4
						C76.59,29.8,76.48,29.69,76.34,29.69z M76.09,49.1h-12.6V30.19h12.6V49.1z"/>
				</g>
			</g>
		</g>
	</g>
	<text transform="matrix(1 0 0 1 9.1057 99.518)"><tspan x="0" y="0" class="st0 st3 st4">DESENVOLVIMENTO DE</tspan><tspan x="0" y="16.85" class="st0 st3 st4">SITES E APLICATIVOS</tspan></text>
</g>
</svg>
