<?xml version="1.0" encoding="utf-8"?>
<!-- Generator: Adobe Illustrator 25.4.1, SVG Export Plug-In . SVG Version: 6.00 Build 0)  -->
<svg version="1.1" id="Camada_1" xmlns="http://www.w3.org/2000/svg" xmlns:xlink="http://www.w3.org/1999/xlink" x="0px" y="0px"
	 viewBox="0 0 158.87 130.32" style="enable-background:new 0 0 158.87 130.32;" xml:space="preserve">
<style type="text/css">
	.st0{fill:#1C3955;}
	.st1{font-family:'MyriadPro-Semibold';}
	.st2{font-size:14.04px;}
	.st3{fill:#FFFFFF;}
</style>
<g>
	<text transform="matrix(1 0 0 1 13.9807 104.2528)"><tspan x="0" y="0" class="st0 st1 st2">CRIAÇÃO &amp; DESIGN</tspan><tspan x="0" y="16.85" class="st0 st1 st2">DIGITAL E IMPRESSO</tspan></text>
	<g>
		<path class="st0" d="M86.98,78.32h-61c-6.6,0-12-5.4-12-12V23.54c0-6.6,5.4-12,12-12h61c6.6,0,12,5.4,12,12v42.79
			C98.98,72.92,93.58,78.32,86.98,78.32z"/>
		<g id="XMLID_10317_">
			<path id="XMLID_10338_" class="st3" d="M49.35,57.33c3.12,3.12,7.27,4.92,11.68,5.07c0.19,0.01,0.39,0.01,0.58,0.01
				c4.59,0,9.03-1.83,12.28-5.08c3.28-3.28,5.08-7.63,5.08-12.27c0-4.64-1.81-8.99-5.08-12.27c-3.43-3.43-7.99-5.22-12.86-5.06
				c-0.97,0.03-1.93,0.14-2.86,0.33l-0.09,0.02c-0.99,0.33-1.41,0.92-1.59,1.36c-0.38,0.95,0.02,1.97,0.31,2.52l0.06,0.11
				c0.02,0.04,0.05,0.08,0.07,0.11l0.02,0.06l0.02,0.02c1.18,2.35,0.73,5.16-1.13,7.02c-1.93,1.93-4.94,2.33-7.31,0.96l-1.21-0.7
				v0.33c-0.37-0.03-0.73,0.01-1.07,0.14c-1.02,0.37-1.49,1.34-1.61,1.63l-0.05,0.16C43.52,47.46,45.3,53.27,49.35,57.33z
				 M46.16,42.2c0.08-0.16,0.3-0.55,0.65-0.67c0.25-0.09,0.58-0.04,0.96,0.15l0.16,0.08c0.12,0.06,0.24,0.12,0.36,0.18l1.1,0.56
				l-0.04-0.15c2.66,0.8,5.62,0.1,7.64-1.92c2.27-2.27,2.88-5.65,1.59-8.55l0.06-0.1l-0.31-0.4c-0.03-0.05-0.05-0.09-0.08-0.14
				l-0.03-0.05c-0.24-0.45-0.33-0.89-0.23-1.13c0.07-0.17,0.26-0.31,0.56-0.41c0.82-0.16,1.67-0.26,2.54-0.29
				c4.41-0.15,8.56,1.48,11.66,4.59c2.97,2.97,4.61,6.92,4.61,11.13s-1.64,8.16-4.61,11.13c-3.11,3.11-7.26,4.75-11.66,4.6
				c-4-0.14-7.77-1.77-10.59-4.6C46.84,52.53,45.22,47.3,46.16,42.2z"/>
			<path id="XMLID_10335_" class="st3" d="M52.03,51.56c0.94-0.25,1.73-0.86,2.22-1.7c0.49-0.84,0.62-1.83,0.37-2.77
				c-0.52-1.94-2.53-3.1-4.47-2.58l0,0c-0.94,0.25-1.73,0.86-2.22,1.7c-0.49,0.85-0.62,1.83-0.36,2.77c0.25,0.94,0.86,1.73,1.7,2.22
				c0.56,0.32,1.19,0.49,1.82,0.49C51.4,51.69,51.72,51.64,52.03,51.56z M49.67,50.5c-0.66-0.38-1.13-0.99-1.32-1.73
				c-0.2-0.73-0.1-1.5,0.28-2.16c0.38-0.66,0.99-1.13,1.73-1.32c1.51-0.4,3.08,0.5,3.48,2.01c0.2,0.73,0.1,1.5-0.28,2.16
				c-0.38,0.66-0.99,1.13-1.73,1.33C51.09,50.98,50.33,50.88,49.67,50.5z"/>
			<path id="XMLID_10332_" class="st3" d="M55.15,57.26c0.49,0.84,1.27,1.45,2.22,1.7c0.32,0.08,0.63,0.13,0.95,0.13
				c0.91,0,1.79-0.34,2.48-0.99c0.5-0.47,0.86-1.06,1.04-1.72c0.35-1.3-0.05-2.69-1.04-3.61c-0.44-0.41-0.97-0.7-1.54-0.86
				c-1.94-0.52-3.95,0.64-4.47,2.58l0,0C54.53,55.43,54.66,56.42,55.15,57.26z M55.56,54.7c0.41-1.51,1.97-2.41,3.48-2.01
				c0.45,0.12,0.86,0.35,1.2,0.67c0.77,0.72,1.08,1.8,0.81,2.81c-0.14,0.51-0.42,0.97-0.81,1.34c-0.72,0.68-1.72,0.93-2.67,0.67
				c-0.73-0.2-1.35-0.67-1.73-1.32C55.47,56.2,55.37,55.43,55.56,54.7z"/>
			<path id="XMLID_10329_" class="st3" d="M68.3,49.55c-0.97,0-1.89,0.38-2.58,1.07c-1.42,1.42-1.42,3.74,0,5.16
				c0.69,0.69,1.61,1.07,2.58,1.07c0.97,0,1.89-0.38,2.58-1.07c0.69-0.69,1.07-1.61,1.07-2.58c0-0.97-0.38-1.89-1.07-2.58
				C70.19,49.93,69.28,49.55,68.3,49.55z M70.31,55.21c-0.54,0.54-1.25,0.83-2.01,0.83c-0.76,0-1.47-0.3-2.01-0.83
				c-1.11-1.11-1.11-2.91,0-4.02l0,0c0.54-0.54,1.25-0.83,2.01-0.83c0.76,0,1.47,0.3,2.01,0.83c0.54,0.54,0.83,1.25,0.83,2.01
				C71.14,53.96,70.85,54.67,70.31,55.21z"/>
			<path id="XMLID_10326_" class="st3" d="M68.02,44.56c0.44,1.63,1.92,2.71,3.53,2.71c0.31,0,0.63-0.04,0.94-0.13
				c0.94-0.25,1.73-0.86,2.22-1.7c0.49-0.84,0.62-1.83,0.36-2.77c-0.52-1.94-2.52-3.1-4.47-2.58l0,0
				C68.66,40.61,67.5,42.62,68.02,44.56z M70.81,40.87c1.51-0.4,3.08,0.5,3.48,2.01c0.2,0.73,0.1,1.5-0.28,2.16
				c-0.38,0.66-0.99,1.13-1.73,1.32c-1.51,0.41-3.07-0.5-3.48-2.01C68.4,42.84,69.3,41.28,70.81,40.87z"/>
			<path id="XMLID_10323_" class="st3" d="M63.39,39.62c0.32,0.08,0.63,0.13,0.95,0.13c0.63,0,1.26-0.17,1.82-0.49
				c0.84-0.49,1.45-1.28,1.7-2.22c0.52-1.94-0.64-3.95-2.58-4.47c-1.94-0.52-3.95,0.64-4.47,2.58c-0.25,0.94-0.12,1.92,0.37,2.77
				C61.66,38.77,62.45,39.37,63.39,39.62z M61.59,35.36c0.41-1.51,1.97-2.42,3.48-2.01c1.51,0.41,2.42,1.97,2.01,3.48
				c-0.2,0.73-0.67,1.35-1.33,1.73c-0.66,0.38-1.42,0.48-2.16,0.28c-0.73-0.2-1.35-0.67-1.73-1.32
				C61.49,36.86,61.39,36.1,61.59,35.36z"/>
			<path id="XMLID_10318_" class="st3" d="M39.58,25.49l-0.26,0.31l-0.01-0.01l0.24-0.32l-0.49-0.37l-0.49,0.37
				c-0.19,0.14-4.6,3.51-4.6,7.84c0,2.91,1.01,4.27,2.34,4.9c-0.05,0.3-0.1,0.59-0.14,0.87c-0.49,3.27-0.63,7.02-0.38,10.54
				c0.83,11.77,1.49,14.86,3.2,15.05l0.9,0.1v-0.41c1.31-0.94,1.76-4.88,2.38-14.84c0.22-3.51,0.1-7.25-0.34-10.52l-0.11-0.7h-0.01
				c-0.01-0.03-0.01-0.07-0.02-0.1c1.32-0.62,2.33-1.98,2.33-4.89C44.14,29.13,40.05,25.85,39.58,25.49z M40.67,49.42
				c-0.26,4.2-0.73,11.79-1.56,13.38c-0.88-1.82-1.44-9.76-1.69-13.3c-0.24-3.41-0.11-7.03,0.36-10.19
				c0.03-0.23,0.07-0.45,0.11-0.69c0.4,0.05,0.8,0.07,1.2,0.07h0c0.38,0,0.77-0.02,1.15-0.07c0.03,0.19,0.06,0.39,0.08,0.59l0.1,0.7
				h0C40.78,42.91,40.87,46.26,40.67,49.42z M42.35,33.96c0.11-0.18,0.16-0.39,0.18-0.62c-0.01,3.15-1.17,3.73-3.47,3.74
				c-2.3,0-3.47-0.58-3.47-3.77c0-0.33,0.04-0.65,0.1-0.97c0.24,0.13,0.5,0.2,0.78,0.21c1.11,0.04,1.48-0.95,1.72-1.61
				c0.13-0.35,0.27-0.74,0.4-0.76c0.2,0.1,0.53,0.97,0.74,1.54c0.48,1.29,1.03,2.73,2.07,2.73c0.08,0,0.17-0.01,0.25-0.03
				C41.96,34.37,42.2,34.2,42.35,33.96z M41.39,31.39c0.2,0.71,0.5,1.79,0.27,2.15c-0.02,0.04-0.06,0.08-0.16,0.1
				c-0.54,0.11-1.03-1.22-1.4-2.2c-0.43-1.15-0.77-2.06-1.46-2.06c-0.01,0-0.03,0-0.04,0c-0.7,0.03-0.95,0.72-1.16,1.28
				c-0.27,0.74-0.46,1.1-0.93,1.08c-0.36-0.01-0.66-0.2-0.89-0.58c0.86-2.22,2.77-3.96,3.45-4.53c0.48,0.4,1.58,1.38,2.48,2.72
				c-0.09,0.02-0.18,0.08-0.25,0.15C40.96,29.84,41.13,30.45,41.39,31.39z"/>
		</g>
	</g>
</g>
</svg>
