<?xml version="1.0" encoding="utf-8"?>
<!-- Generator: Adobe Illustrator 25.4.1, SVG Export Plug-In . SVG Version: 6.00 Build 0)  -->
<svg version="1.1" id="Camada_1" xmlns="http://www.w3.org/2000/svg" xmlns:xlink="http://www.w3.org/1999/xlink" x="0px" y="0px"
	 viewBox="0 0 311.03 168.22" style="enable-background:new 0 0 311.03 168.22;" xml:space="preserve">
<style type="text/css">
	.st0{fill:#1C4258;stroke:#1C4258;stroke-width:0.5;stroke-miterlimit:10;}
	.st1{font-family:'OriyaSangamMN';}
	.st2{font-size:9.5255px;}
	.st3{letter-spacing:1;}
	.st4{opacity:0.15;}
	.st5{fill:#1C4258;}
	.st6{font-family:'Aspire-DemiBold';}
	.st7{font-size:81.5307px;}
	.st8{font-size:87.8023px;}
	.st9{font-size:86.959px;}
	.st10{fill:none;}
	.st11{fill:#FFFFFF;stroke:#1C4258;stroke-miterlimit:10;}
	.st12{fill:none;stroke:#1C4258;stroke-miterlimit:10;}
	.st13{fill:url(#SVGID_1_);}
	.st14{fill:url(#SVGID_00000165214765639078098650000007204750244407923382_);}
	.st15{opacity:0.52;}
	.st16{opacity:0.07;}
	.st17{fill:#FFFFFF;}
	.st18{opacity:0.2;}
	.st19{opacity:0.78;}
	.st20{opacity:0.1;}
	.st21{opacity:0.3;}
</style>
<g>
	<g>
		<g>
			<text transform="matrix(1 0 0 1 190.0086 161.2532)" class="st0 st1 st2 st3">COMMUNICATION</text>
		</g>
		<g>
			<g>
				<g class="st4">
					<g>
						<g>
							<g>
								<g>
									<path class="st5" d="M294.78,145.97c0.85-0.06-0.46-0.26,0.55-0.11C295.22,145.97,295.06,146.06,294.78,145.97z"/>
									<path class="st5" d="M67.92,146.24c2.63-1.03,6.28-0.65,9.21-1.39c0.35-0.06-0.05,0.42,0.73,0.25
										c2.83-0.87,7.4-0.92,10.95-0.75l-0.2,0.14c0.68,0.03,1.46-0.43,2.17-0.43c0.01,0.08-0.22,0.13-0.05,0.22
										c0.16-0.25,1.27-0.22,1.56-0.42c0.29,0.07,0.27,0.26,0.65,0.33l0.38-0.3c1.08-0.72,2.74-0.16,4.26-0.61
										c-0.07,0.07-0.22,0.13-0.09,0.18c2.44-0.58,5.54-0.73,8.3-1.05c-0.1,0.1-0.19,0.28-0.02,0.38
										c0.12-0.29,0.97-0.42,1.71-0.52c0.35,0.27,1.25-0.35,2.13-0.25l-0.07,0.07c0.62-0.35,0.96,0.11,1.46-0.29l0.42,0.2
										c0.26-0.43,0.94,0.16,1.46-0.08l-0.02-0.08c0.49-0.13,0.77,0.06,1.23-0.04l0.05,0.05c1.08-0.17,1.73,0.02,1.68-0.3
										c0.4,0.23-1.05,0.18-0.43,0.51c3.56-0.55,7.26-0.67,10.86-0.85c0.42,0.11,0.68,0.13,0.78,0.25
										c0.36-0.08,1.35-0.13,1.67-0.31c-0.12,0.01,0.24,0.15,0.43,0.16c0.66,0.09,0.7-0.38,1.43-0.27
										c-0.28,0.1-0.38,0.21-0.27,0.32c0.6-0.27,1.43-0.27,2.15-0.38c-0.11,0.06-0.28,0.1-0.25,0.2c0.78-0.32,1.45,0,2.14-0.21
										l-0.25,0.2c1.13,0.18,0.32-0.4,1.29-0.31c-0.23,0.07-0.15,0.14-0.18,0.21c0.89-0.37,2.36-0.32,3.26-0.47
										c-0.05,0.03-0.04,0.08-0.04,0.08c0.98-0.07,2.01,0,3.09-0.18c0.4,0.07-0.11,0.46,0.92,0.35c-0.05-0.37,1.76-0.21,1.13-0.61
										c0.89,0.03,2.3,0.13,2.89-0.02c-0.4,0.15,0.45,0.44-0.29,0.5l0.57,0.21c-0.08,0.15-0.58-0.03-0.39,0.15
										c0.37-0.03,1.44-0.21,1.78-0.15c0.68-0.24,1.3-0.68,2.41-0.76c-0.52,0.16,0.31,0.4-0.05,0.47l1.53-0.75
										c0.37-0.03,0.09,0.29,0.62,0.18c-0.03-0.1,0.2-0.16,0.36-0.25c0.14,0.04,1.54-0.13,1.7,0.23c0.17,0.14-0.6,0.09-0.19,0.21
										c0.68-0.02,0.71-0.15,1.39-0.17l0.01,0.05c0.45,0.04,1.33-0.19,0.83-0.38c-0.31,0,0.12,0.22-0.34,0.12
										c0.31-0.22,1.11-0.29,1.79-0.31c-0.23,0.06-0.2,0.16-0.29,0.26c0.91-0.3,1.88-0.41,2.91-0.54
										c0.01-0.17-0.38,0.32-0.53,0.23c1.32,0.22,2.71-0.38,3.81-0.05c-0.18,0.03-0.1-0.25-0.09-0.2
										c0.63,0.01,0.61,0.26,1.02,0.16c0.04,0.15,0.52-0.05,0.94-0.11c0.22-0.11,0.11,0.07-0.26,0.09
										c0.59-0.13,2.96-0.37,4.33-0.17c-0.03-0.1,0.84-0.36,1.15-0.36l-0.12,0.23c0.29,0.13,1.05-0.03,1.11,0.17
										c0.67-0.28-2.58,0.25-1.68,0.03c0.24,0.19,1.26-0.37,1.07-0.06c0.63-0.01,1.24-0.27,1.85-0.06c-0.17-0.03-0.51,0.32,0,0.3
										c0.9-0.05,0.25-0.11,0.98-0.19l0.46-0.1c0.03-0.22,0.8,0.03,0.47-0.22c0.11,0.18,1.3-0.11,1.21,0.26l-0.12,0.29
										c0.39-0.02,0.64-0.31,0.94-0.43c0.05,0.03,0.15,0.09,0.13,0.13c0.06-0.44,0.93,0.04,1.39-0.3c0.81,0.16,2.07,0.02,2.45,0.3
										c0.63-0.13,1.2-0.29,1.91-0.2c-0.14,0.04-0.34,0.05-0.38,0.15c0.45,0.13,0.56,0.01,0.97-0.06
										c-0.09,0.06,0.89,0.26,1.39,0.43c0.62-0.13,0.41-0.37,0.47-0.51c0.56,0.45,1.76-0.26,2.47,0.14
										c-0.22,0.06-0.91,0.21-0.39,0.32c0.56,0.44,1.15-0.31,2.06-0.09l-0.22-0.37c0.41,0.23,1.35-0.2,1.25,0.17
										c0.31-0.13,1.08,0.13,0.98-0.22c1.5,0.31,3.66-0.12,4.58,0.53c0.22-0.05,0.75,0.02,0.65-0.17
										c-0.35-0.21-0.5,0.13-0.63-0.01c0.19-0.01,0.24-0.1,0.26-0.15c0.47,0.09,0.83,0.12,0.39,0.41
										c1.04,0.24,1.08-0.58,2.41-0.42c-0.06,0.15,0.04,0.2,0.42,0.19l0.74-0.24c0.86,0.08,0.48,0.34,0.49,0.59
										c0.46-0.03,1.02-0.01,1.23-0.19l0.55,0.33c-0.4-0.24,0.38-0.14,0.6-0.2l-0.22,0.06c0.08,0.11,0.61,0.06,0.88,0.03
										c-0.06-0.16-0.6-0.23-0.89-0.29c0.24-0.1,0.6-0.07,0.91-0.19c-0.11,0.24,0.74,0.19,1.1,0.23c0.42,0.06,0.48-0.21,0.6-0.19
										c0.01,0.13,0.68,0.04,0.35,0.21c-0.14,0.04-0.32-0.13-0.56-0.03c0.27,0.1,0.24,0.32,0.81,0.18
										c0.43-0.11-0.1-0.49,0.71-0.31c-0.21,0.05-0.26,0.15-0.43,0.23l0.76,0.15l0.04-0.22c0.1,0.06,0.03,0.08,0.08,0.11
										c0.23-0.23,1.17-0.04,1.35-0.3c0.39-0.01,0.81,0.18,1.17,0.21l-0.07,0.02c0.45,0.14,1.05,0.07,1.43-0.07l-0.02,0.05
										c0.24,0.03,0.83,0.01,1.14-0.12c0.62,0.18,0.19,0.85,0.88,0.58c0.63,0.01,1-0.38,0.75-0.53c1.13,0.18,2.43-0.16,3.47,0.22
										c0.17-0.08,0.07-0.14,0.4-0.18c1.66,0.16,3.53-0.13,4.83,0.37c-0.49,0.07-0.04,0.22-0.04,0.35
										c0.41-0.18,0.47,0.23,0.63-0.1c-0.03-0.2,0.01-0.3-0.45-0.4c1-0.06,2.51,0.02,3.05,0.24c-0.27-0.11-0.05-0.16,0.17-0.21
										c-0.09,0.32,0.64,0.4,1.2,0.32l0.09-0.19l0.35,0.22c0.22-0.05,0.26-0.4,0.8-0.17c0.03,0.08,0.05,0.16,0.15,0.22
										c0.58-0.12,1.41-0.34,2.02-0.14l0.49,0.32c0.27-0.01,0.73-0.16,0.26-0.27c1.05,0.24,1.73,0.31,2.05,0.58
										c1.86-0.47,4.52-0.32,6.63-0.11l-0.07,0.14c0.56,0.18,0.32-0.23,0.7-0.1c-0.19,0.13,0.41,0.34-0.05,0.47
										c0.8,0.22,1.07-0.17,1.6-0.2c0.1-0.19-0.44,0.09-0.31-0.14c0.1-0.06,1.12,0.23,1.26-0.05c0.2,0.13,0.02,0.33-0.1,0.44
										l0.51-0.1c0.58,0.39-1.43,0.5-0.83,0.96l0.46-0.01c0.41,0.34-1.24,0.25-0.1,0.44c0.51-0.1,0.97-0.49,0.53-0.65
										c1.04,0,0.53-0.65,1.65-0.54c0.29,0.19-0.9-0.03-0.7,0.23c0.51,0.28,1.06-0.05,1.53,0.07c-0.51-0.15-0.05-0.41,0.29-0.44
										c0.56,0.18-0.39,0.25,0.41,0.34c0.15-0.16,0.89-0.22,0.26-0.39c0.32-0.36,0.83,0.17,1.29-0.09c0.24,0.29-0.88,0.55,0,0.76
										c-0.12-0.27,1.12-0.26,0.68-0.68c0.34,0.1,0.36,0.31,0.1,0.44c0.48,0.2,1.24-0.37,1.36,0.15l0.19-0.25
										c0.15,0.1,0.36,0.18,0.61,0.34c0.43,0.04,1.43-0.24,1.36,0.15c0.14-0.03,1.14,0.07,0.77-0.24
										c-0.6-0.22-0.73,0.14-1.04-0.26c0.41,0.34,0.9,0.03,1.26-0.04l0.05,0.16c0.22-0.04,0.7,0.03,0.85-0.13
										c-0.17,0.08-0.09,0.19,0.07,0.24l0.24-0.22c0.87-0.05,0.17,0.43,1.02,0.43l-0.65,0.13c0.14-0.03,0.41,0.21,0.82,0.17
										c0.17-0.2,0.49-0.43,0.63-0.59c0.48-0.06,0.19,0.26,0.68,0.08l-0.63,0.21c-0.1,0.06,0.38,0.38,1.02,0.43
										c0.41-0.04,1.06-0.3,0.43-0.47c0.32,0.02,0.75,0.19,0.49,0.32c0.72-0.02-0.08-0.24,0.55-0.32
										c0.24,0.16,1.02,0.42,1.48,0.67l-0.67,0.31l0.43,0.04c-0.58,0.24,0.27,0.24-0.07,0.52c0.29,0.07,0.66-0.01,0.95-0.06
										c-0.82-0.55,1.01-0.59,0.8-1.05c1.19-0.03,0.66,1.13,1.94,0.53c-0.19-0.13,0.41-0.42-0.34-0.35
										c0.73,0.1,0.53-0.41,1.38-0.16c-0.65,0.14,0.66,0.5-0.29,0.69c0.07-0.14-0.51-0.15-0.65-0.12
										c0.29,0.19-0.09,0.44,0.66,0.49c0.46-0.01,1.09,0.03,1.01-0.21c0-0.25-0.7-0.02-0.39-0.26c0.92-0.02,1.04,0.37,1.45-0.05
										c-0.58-0.01-0.7-0.28-0.68-0.45l0.68-0.06l-0.14,0.16c1.07,0.2,0.34-0.28,1.37-0.16l0.47,0.37
										c-0.27,0.27-1.5-0.23-1.35,0.24c0.67,0.07,0.92-0.15,1.54,0.01c-0.14,0.03-0.34,0.03-0.48,0.06
										c0.24,0.03,0.44,0.67,1.43,0.37c0.51-0.11,0.14-0.16,0.17-0.33c1.09,0.01,1.43-0.14,2.13-0.13
										c-0.16,0.33,1.23,0.11,0.44,0.41c-0.34-0.22-1.91-0.3-2.32,0c0.37,0.43-0.85-0.11-1.11,0.28c0.87,0.06,0.8,0.46,0.93,0.73
										c0.24,0.03,0.48-0.06,0.63-0.09c0.12-0.24-0.2-0.25-0.2-0.51c0.97,0.13,1.91,0.05,2.47-0.16c0.32,0.14,0.2,0.38-0.19,0.38
										c1.16,0,2.4,0.1,3.49,0.23c-0.69-0.44,1.23-0.03,0.76-0.39c-0.58-0.12-1.07-0.43-0.74-0.59c0.37,0.05-0.02,0.17,0.13,0.27
										c0.48-0.19,0.71,0.39,1.19,0.07c-1.06,0.07-0.23,0.47-0.44,0.78c0.77-0.14-0.04,0.22,0.71,0.26
										c0.77-0.13,1.71-0.22,2.56-0.26c1.05,0.34,2.69,0.11,3.64,0.14c0.49,0.18,0.14,0.52,0.68,0.6
										c0.63,0.01-0.46-0.39,0.47-0.21l-0.09,0.07c0.29-0.07,1.71,0.28,2-0.22l-0.3,0.38c0.17,0.04,0.34-0.04,0.48-0.08
										c0,0.12,0.2,0.24-0.08,0.32c0.57,0.28,1.22-0.01,1.84-0.01l-0.4-0.24c1.08-0.15,1.79,0.08,2.84,0.01l-0.03,0.22l0.62-0.13
										c-0.15,0.21,0.41,0.36,0.74,0.18l-1.62,0.53c-0.45-0.13,0.49-0.26,0.21-0.48c-0.24-0.19-1.2-0.14-1.36,0.07
										c0.37,0.03,0.39-0.02,0.68-0.1c0.12,0.31-0.44,0.29-0.72,0.5c0.19-0.01,0.47,0.09,0.51-0.01c-0.38,0.15-0.77,0.17-1.4,0.16
										c0.43-0.11-0.23-0.2-0.07-0.28c-0.06,0.27-0.66,0.34-1.44,0.24c-0.55-0.33-1.48,0.16-2.38,0.06
										c0.38-0.27,0.85-0.47,1.41-0.57c-0.57-0.15-0.63-0.01-1.2-0.16c-0.28,0.2-0.49,0.51-1.24,0.61l-0.03-0.2
										c-0.68,0.08-0.69,0.38-1.54,0.29c-1.46-0.16-2.98-0.21-4.09-0.3l-0.03-0.2c-0.64,0.4-2.08,0.05-2.93,0.2
										c-1.42-0.26-3.11,0.01-3.82-0.38c-2.53,0.01-4.73,0-7.33-0.26l0.46-0.26c-0.48,0.18-0.29-0.19-0.75-0.18
										c0.51,0.27-0.66,0.26-0.99,0.41c-1.14-0.32-2.65-0.18-3.69-0.05l-0.02-0.2c-1.07,0.3-2.28-0.13-3.57-0.3
										c-0.14-0.1-0.36-0.3-0.75-0.31c-0.73,0.27-1.09,0.22-2.14,0.34c-0.75-0.06-1.96-0.24-2.71-0.43
										c-2.86,0.23-5.72-0.29-8.67-0.24l-0.19-0.25c-2.88,0.29-6.34-0.42-8.79-0.33l0.26-0.39c-0.75-0.18-1.74,0-1.57,0.3
										c-0.76-0.17-1.91,0.08-2.38-0.28c-0.77-0.12-0.96,0.13-1.62,0.14c-1.55-0.24-2.13-0.23-3.61-0.23l0.36,0.04
										c0.17-0.08,0.19-0.25-0.18-0.3c-0.55,0.09-2.01-0.21-1.49,0.3c-1.56-0.35-3.67,0.08-5.18-0.36
										c0.13,0.14-0.26,0.15-0.43,0.23c-1.38-0.03-2.82-0.33-3.93-0.13c-0.22-0.07,0.36-0.22-0.21-0.25
										c-0.33,0.04-0.01,0.17-0.42,0.24c-2.24,0.19-4.53-0.38-6.57-0.37c-3.63,0.14-7.4-0.04-10.87-0.07l0.04-0.1
										c-1.17,0.35-2.72-0.43-3.65,0.13c-0.27-0.1-1.05-0.06-0.84-0.24c-0.93,0.25-2.59-0.28-3.93,0.04
										c0.12,0.01,0.19-0.01,0.34-0.05c-1.35-0.23-2.54,0.05-3.97-0.15c0.14-0.04,0.41-0.07,0.45-0.17
										c-0.55-0.19-1.31,0.41-1.61-0.06c-0.32,0-0.23,0.24-0.03,0.22c-3.12-0.19-6.45,0.09-9.7,0.23
										c-2.33-0.27-0.15-0.79-1.98-0.43c-0.15-0.09-0.11,0.18-0.13,0.08c-0.71,0.14-1.11-0.52-1.6-0.27
										c0.21,0.29-0.33,0.16-0.34,0.34c-1.42-0.18-1.71-0.44-2.83-0.2l0.08-0.15c-1.31,0.45-2.84,0.24-3.94,0.75
										c-7.26,0.19-14.2,0.66-21.27,0.95c-6.99,0.15-13.82,0.69-20.92,0.81c-1.68-0.3-1.81-0.28-3.62-0.02
										c0.07-0.07,0.18-0.09,0.06-0.14c-0.07,0.33-1.28,0.1-1.44,0.43c-2.62,0.08-5.03,0.34-7.73,0.52
										c0.42-0.06,0.62-0.34,0.11-0.29l-0.52,0.24l-0.09-0.08c-0.34,0.07-0.71,0.26-0.35,0.34c-6.75,0.73-13.45,0.6-20.07,1.25
										c-1.59-0.01-3.81,0.33-5.51,0.55c-5.1,0.02-9.7,0.14-14.81,0.97C65.24,147.57,65.82,146.65,67.92,146.24z"/>
									<path class="st5" d="M293.76,145.99c-0.18-0.17-0.77-0.26-0.3-0.47C293.52,145.67,293.83,145.85,293.76,145.99z"/>
									<path class="st5" d="M278.02,143.85c-0.02,0.05-0.22-0.08-0.27-0.11c0.19,0,0.38-0.13,0.53-0.04
										C278.09,143.71,278.11,143.78,278.02,143.85z"/>
									<path class="st5" d="M274,143.53c0.07-0.14,0.94-0.21,1.45-0.2L274,143.53z"/>
									<path class="st5" d="M270.29,142.7c-0.32-0.14-0.22-0.2,0.21-0.17C270.53,142.6,270.38,142.63,270.29,142.7z"/>
									<path class="st5" d="M270,143.01c-0.31-0.02-0.46-0.11-0.61-0.2C269.39,142.94,270.12,142.78,270,143.01z"/>
									<path class="st5" d="M261.89,142.01c-0.2,0-0.63,0.09-0.8-0.09C261.28,142.05,262.06,141.81,261.89,142.01z"/>
									<path class="st5" d="M258.09,141.94c-0.12-0.02-0.17-0.05-0.31-0.02c-0.22-0.08,0.03-0.17,0.22-0.17L258.09,141.94z"/>
									<polygon class="st5" points="188.89,139.18 189.3,139.11 189.24,139.26 									"/>
									<path class="st5" d="M158.55,139.29c-0.41,0.1-0.29-0.13-0.36-0.15C158.56,139.12,158.06,139.32,158.55,139.29z"/>
									<polygon class="st5" points="142.22,140.44 142.34,140.43 142.31,140.73 									"/>
								</g>
							</g>
						</g>
					</g>
				</g>
				<g>
					<g>
						<g>
							<g>
								<g>
									<path class="st5" d="M294.18,144.16c0.85-0.06-0.46-0.26,0.55-0.11C294.62,144.17,294.45,144.26,294.18,144.16z"/>
									<path class="st5" d="M67.32,144.44c2.63-1.03,6.28-0.65,9.21-1.39c0.35-0.06-0.05,0.42,0.73,0.25
										c2.83-0.87,7.4-0.92,10.95-0.75l-0.2,0.14c0.68,0.03,1.46-0.43,2.17-0.43c0.01,0.08-0.22,0.13-0.05,0.22
										c0.16-0.25,1.27-0.22,1.56-0.42c0.29,0.07,0.27,0.26,0.65,0.33l0.38-0.3c1.08-0.72,2.74-0.16,4.26-0.61
										c-0.07,0.07-0.22,0.13-0.09,0.18c2.44-0.58,5.54-0.73,8.3-1.05c-0.1,0.1-0.19,0.28-0.02,0.38
										c0.12-0.29,0.97-0.42,1.71-0.52c0.35,0.27,1.25-0.35,2.13-0.25l-0.07,0.07c0.62-0.35,0.96,0.11,1.46-0.29l0.42,0.2
										c0.26-0.43,0.94,0.16,1.46-0.08l-0.02-0.08c0.49-0.13,0.77,0.06,1.23-0.04l0.05,0.05c1.08-0.17,1.73,0.02,1.68-0.3
										c0.4,0.23-1.05,0.18-0.43,0.51c3.56-0.55,7.26-0.67,10.86-0.85c0.42,0.11,0.68,0.13,0.78,0.25
										c0.36-0.08,1.35-0.13,1.67-0.31c-0.12,0.01,0.24,0.15,0.43,0.16c0.66,0.09,0.7-0.38,1.43-0.27
										c-0.28,0.1-0.38,0.21-0.27,0.32c0.6-0.27,1.43-0.27,2.15-0.38c-0.11,0.06-0.28,0.1-0.25,0.2c0.78-0.32,1.45,0,2.14-0.21
										l-0.25,0.2c1.13,0.18,0.32-0.4,1.29-0.31c-0.23,0.07-0.15,0.14-0.18,0.21c0.89-0.37,2.36-0.32,3.26-0.47
										c-0.05,0.03-0.04,0.08-0.04,0.08c0.98-0.07,2.01,0,3.09-0.18c0.4,0.07-0.11,0.46,0.92,0.35c-0.05-0.37,1.76-0.21,1.13-0.61
										c0.89,0.03,2.3,0.13,2.89-0.02c-0.4,0.15,0.45,0.44-0.29,0.5l0.57,0.21c-0.08,0.15-0.58-0.03-0.39,0.15
										c0.37-0.03,1.44-0.21,1.78-0.15c0.68-0.24,1.3-0.68,2.41-0.76c-0.52,0.16,0.31,0.4-0.05,0.47l1.53-0.75
										c0.37-0.03,0.09,0.29,0.62,0.18c-0.03-0.1,0.2-0.16,0.36-0.25c0.14,0.04,1.54-0.13,1.7,0.23c0.17,0.14-0.6,0.09-0.19,0.21
										c0.68-0.02,0.71-0.15,1.39-0.17l0.01,0.05c0.45,0.04,1.33-0.19,0.83-0.38c-0.31,0,0.12,0.22-0.34,0.12
										c0.31-0.22,1.11-0.29,1.79-0.31c-0.23,0.06-0.2,0.16-0.29,0.26c0.91-0.3,1.88-0.41,2.91-0.54
										c0.01-0.17-0.38,0.32-0.53,0.23c1.32,0.22,2.71-0.38,3.81-0.05c-0.18,0.03-0.1-0.25-0.09-0.2
										c0.63,0.01,0.61,0.26,1.02,0.16c0.04,0.15,0.52-0.05,0.94-0.11c0.22-0.11,0.11,0.07-0.26,0.09
										c0.59-0.13,2.96-0.37,4.33-0.17c-0.03-0.1,0.84-0.36,1.15-0.36l-0.12,0.23c0.29,0.13,1.05-0.03,1.11,0.17
										c0.67-0.28-2.58,0.25-1.68,0.03c0.24,0.19,1.26-0.37,1.07-0.06c0.63-0.01,1.24-0.27,1.85-0.06c-0.17-0.03-0.51,0.32,0,0.3
										c0.9-0.05,0.25-0.11,0.98-0.19l0.46-0.1c0.03-0.22,0.8,0.03,0.47-0.22c0.11,0.18,1.3-0.11,1.21,0.26l-0.12,0.29
										c0.39-0.02,0.64-0.31,0.94-0.43c0.05,0.03,0.15,0.09,0.13,0.13c0.06-0.44,0.93,0.04,1.39-0.3c0.81,0.16,2.07,0.02,2.45,0.3
										c0.63-0.13,1.2-0.29,1.91-0.2c-0.14,0.04-0.34,0.05-0.38,0.15c0.45,0.13,0.56,0.01,0.97-0.06
										c-0.09,0.06,0.89,0.26,1.39,0.43c0.62-0.13,0.41-0.37,0.47-0.51c0.56,0.45,1.76-0.26,2.47,0.14
										c-0.22,0.06-0.91,0.21-0.39,0.32c0.56,0.44,1.15-0.31,2.06-0.09l-0.22-0.37c0.41,0.23,1.35-0.2,1.25,0.17
										c0.31-0.13,1.08,0.13,0.98-0.22c1.5,0.31,3.66-0.12,4.58,0.53c0.22-0.05,0.75,0.02,0.65-0.17
										c-0.35-0.21-0.5,0.13-0.63-0.01c0.19-0.01,0.24-0.1,0.26-0.15c0.47,0.09,0.83,0.12,0.39,0.41
										c1.04,0.24,1.08-0.58,2.41-0.42c-0.06,0.15,0.04,0.2,0.42,0.19l0.74-0.24c0.86,0.08,0.48,0.34,0.49,0.59
										c0.46-0.03,1.02-0.01,1.23-0.19l0.55,0.33c-0.4-0.24,0.38-0.14,0.6-0.2l-0.22,0.06c0.08,0.11,0.61,0.06,0.88,0.03
										c-0.06-0.16-0.6-0.23-0.89-0.29c0.24-0.1,0.6-0.07,0.91-0.19c-0.11,0.24,0.74,0.19,1.1,0.23c0.42,0.06,0.48-0.21,0.6-0.19
										c0.01,0.13,0.68,0.04,0.35,0.21c-0.14,0.04-0.32-0.13-0.56-0.03c0.27,0.1,0.24,0.32,0.81,0.18
										c0.43-0.11-0.1-0.49,0.71-0.31c-0.21,0.05-0.26,0.15-0.43,0.23l0.76,0.15l0.04-0.22c0.1,0.06,0.03,0.08,0.08,0.11
										c0.23-0.23,1.17-0.04,1.35-0.3c0.39-0.01,0.81,0.18,1.17,0.21l-0.07,0.02c0.45,0.14,1.05,0.07,1.43-0.07l-0.02,0.05
										c0.24,0.03,0.83,0.01,1.14-0.12c0.62,0.18,0.19,0.85,0.88,0.58c0.63,0.01,1-0.38,0.75-0.53c1.13,0.18,2.43-0.16,3.47,0.22
										c0.17-0.08,0.07-0.14,0.4-0.18c1.66,0.16,3.53-0.13,4.83,0.37c-0.49,0.07-0.04,0.22-0.04,0.35
										c0.41-0.18,0.47,0.23,0.63-0.1c-0.03-0.2,0.01-0.3-0.45-0.4c1-0.06,2.51,0.02,3.05,0.24c-0.27-0.11-0.05-0.16,0.17-0.21
										c-0.09,0.32,0.64,0.4,1.2,0.32l0.09-0.19l0.35,0.22c0.22-0.05,0.26-0.4,0.8-0.17c0.03,0.08,0.05,0.16,0.15,0.22
										c0.58-0.12,1.41-0.34,2.02-0.14l0.49,0.32c0.27-0.01,0.73-0.16,0.26-0.27c1.05,0.24,1.73,0.31,2.05,0.58
										c1.86-0.47,4.52-0.32,6.63-0.11l-0.07,0.14c0.56,0.18,0.32-0.23,0.7-0.1c-0.19,0.13,0.41,0.34-0.05,0.47
										c0.8,0.22,1.07-0.17,1.6-0.2c0.1-0.19-0.44,0.09-0.31-0.14c0.1-0.06,1.12,0.23,1.26-0.05c0.2,0.13,0.02,0.33-0.1,0.44
										l0.51-0.1c0.58,0.39-1.43,0.5-0.83,0.96l0.46-0.01c0.41,0.34-1.24,0.25-0.1,0.44c0.51-0.1,0.97-0.49,0.53-0.65
										c1.04,0,0.53-0.65,1.65-0.54c0.29,0.19-0.9-0.03-0.7,0.23c0.51,0.28,1.06-0.05,1.53,0.07c-0.51-0.15-0.05-0.41,0.29-0.44
										c0.56,0.18-0.39,0.25,0.41,0.34c0.15-0.16,0.89-0.22,0.26-0.39c0.32-0.36,0.83,0.17,1.29-0.09c0.24,0.29-0.88,0.55,0,0.76
										c-0.12-0.27,1.12-0.26,0.68-0.68c0.34,0.1,0.36,0.31,0.1,0.44c0.48,0.2,1.24-0.37,1.36,0.15l0.19-0.25
										c0.15,0.1,0.36,0.18,0.61,0.34c0.43,0.04,1.43-0.24,1.36,0.15c0.14-0.03,1.14,0.07,0.77-0.24
										c-0.6-0.22-0.73,0.14-1.04-0.26c0.41,0.34,0.9,0.03,1.26-0.04l0.05,0.16c0.22-0.04,0.7,0.03,0.85-0.13
										c-0.17,0.08-0.09,0.19,0.07,0.24l0.24-0.22c0.87-0.05,0.17,0.43,1.02,0.43l-0.65,0.13c0.14-0.03,0.41,0.21,0.82,0.17
										c0.17-0.2,0.49-0.43,0.63-0.59c0.48-0.06,0.19,0.26,0.68,0.08l-0.63,0.21c-0.1,0.06,0.38,0.38,1.02,0.43
										c0.41-0.04,1.06-0.3,0.43-0.47c0.32,0.02,0.75,0.19,0.49,0.32c0.72-0.02-0.08-0.24,0.55-0.32
										c0.24,0.16,1.02,0.42,1.48,0.67l-0.67,0.31l0.43,0.04c-0.58,0.24,0.27,0.24-0.07,0.52c0.29,0.07,0.66-0.01,0.95-0.06
										c-0.82-0.55,1.01-0.59,0.8-1.05c1.19-0.03,0.66,1.13,1.94,0.53c-0.19-0.13,0.41-0.42-0.34-0.35
										c0.73,0.1,0.53-0.41,1.38-0.16c-0.65,0.14,0.66,0.5-0.29,0.69c0.07-0.14-0.51-0.15-0.65-0.12
										c0.29,0.19-0.09,0.44,0.66,0.49c0.46-0.01,1.09,0.03,1.01-0.21c0-0.25-0.7-0.02-0.39-0.26c0.92-0.02,1.04,0.37,1.45-0.05
										c-0.58-0.01-0.7-0.28-0.68-0.45l0.68-0.06l-0.14,0.16c1.07,0.2,0.34-0.28,1.37-0.16l0.47,0.37
										c-0.27,0.27-1.5-0.23-1.35,0.24c0.67,0.07,0.92-0.15,1.54,0.01c-0.14,0.03-0.34,0.03-0.48,0.06
										c0.24,0.03,0.44,0.67,1.43,0.37c0.51-0.11,0.14-0.16,0.17-0.33c1.09,0.01,1.43-0.14,2.13-0.13
										c-0.16,0.33,1.23,0.11,0.44,0.41c-0.34-0.22-1.91-0.3-2.32,0c0.37,0.43-0.85-0.11-1.11,0.28c0.87,0.06,0.8,0.46,0.93,0.73
										c0.24,0.03,0.48-0.06,0.63-0.09c0.12-0.24-0.2-0.25-0.2-0.51c0.97,0.13,1.91,0.05,2.47-0.16c0.32,0.14,0.2,0.38-0.19,0.38
										c1.16,0,2.4,0.1,3.49,0.23c-0.69-0.44,1.23-0.03,0.76-0.39c-0.58-0.12-1.07-0.43-0.74-0.59c0.37,0.05-0.02,0.17,0.13,0.27
										c0.48-0.19,0.71,0.39,1.19,0.07c-1.06,0.07-0.23,0.47-0.44,0.78c0.77-0.14-0.04,0.22,0.71,0.26
										c0.77-0.13,1.71-0.22,2.56-0.26c1.05,0.34,2.69,0.11,3.64,0.14c0.49,0.18,0.14,0.52,0.68,0.6
										c0.63,0.01-0.46-0.39,0.47-0.21l-0.09,0.07c0.29-0.07,1.71,0.28,2-0.22l-0.3,0.38c0.17,0.04,0.34-0.04,0.48-0.08
										c0,0.12,0.2,0.24-0.08,0.32c0.57,0.28,1.22-0.01,1.84-0.01l-0.4-0.24c1.08-0.15,1.79,0.08,2.84,0.01l-0.03,0.22l0.62-0.13
										c-0.15,0.21,0.41,0.36,0.74,0.18l-1.62,0.53c-0.45-0.13,0.49-0.26,0.21-0.48c-0.24-0.19-1.2-0.14-1.36,0.07
										c0.37,0.03,0.39-0.02,0.68-0.1c0.12,0.31-0.44,0.29-0.72,0.5c0.19-0.01,0.47,0.09,0.51-0.01c-0.38,0.15-0.77,0.17-1.4,0.16
										c0.43-0.11-0.23-0.2-0.07-0.28c-0.06,0.27-0.66,0.34-1.44,0.24c-0.55-0.33-1.48,0.16-2.38,0.06
										c0.38-0.27,0.85-0.47,1.41-0.57c-0.57-0.15-0.63-0.01-1.2-0.16c-0.28,0.2-0.49,0.51-1.24,0.61l-0.03-0.2
										c-0.68,0.08-0.69,0.38-1.54,0.29c-1.46-0.16-2.98-0.21-4.09-0.3l-0.03-0.2c-0.64,0.4-2.08,0.05-2.93,0.2
										c-1.42-0.26-3.11,0.01-3.82-0.38c-2.53,0.01-4.73,0-7.33-0.26l0.46-0.26c-0.48,0.18-0.29-0.19-0.75-0.18
										c0.51,0.27-0.66,0.26-0.99,0.41c-1.14-0.32-2.65-0.18-3.69-0.05l-0.02-0.2c-1.07,0.3-2.28-0.13-3.57-0.3
										c-0.14-0.1-0.36-0.3-0.75-0.31c-0.73,0.27-1.09,0.22-2.14,0.34c-0.75-0.06-1.96-0.24-2.71-0.43
										c-2.86,0.23-5.72-0.29-8.67-0.24l-0.19-0.25c-2.88,0.29-6.34-0.42-8.79-0.33l0.26-0.39c-0.75-0.18-1.74,0-1.57,0.3
										c-0.76-0.17-1.91,0.08-2.38-0.28c-0.77-0.12-0.96,0.13-1.62,0.14c-1.55-0.24-2.13-0.23-3.61-0.23l0.36,0.04
										c0.17-0.08,0.19-0.25-0.18-0.3c-0.55,0.09-2.01-0.21-1.49,0.3c-1.56-0.35-3.67,0.08-5.18-0.36
										c0.13,0.14-0.26,0.15-0.43,0.23c-1.38-0.03-2.82-0.33-3.93-0.13c-0.22-0.07,0.36-0.22-0.21-0.25
										c-0.33,0.04-0.01,0.17-0.42,0.24c-2.24,0.19-4.53-0.38-6.57-0.37c-3.63,0.14-7.4-0.04-10.87-0.07l0.04-0.1
										c-1.17,0.35-2.72-0.43-3.65,0.13c-0.27-0.1-1.05-0.06-0.84-0.24c-0.93,0.25-2.59-0.28-3.93,0.04
										c0.12,0.01,0.19-0.01,0.34-0.05c-1.35-0.23-2.54,0.05-3.97-0.15c0.14-0.04,0.41-0.07,0.45-0.17
										c-0.55-0.19-1.31,0.41-1.61-0.06c-0.32,0-0.23,0.24-0.03,0.22c-3.12-0.19-6.45,0.09-9.7,0.23
										c-2.33-0.27-0.15-0.79-1.98-0.43c-0.15-0.09-0.11,0.18-0.13,0.08c-0.71,0.14-1.11-0.52-1.6-0.27
										c0.21,0.29-0.33,0.16-0.34,0.34c-1.42-0.18-1.71-0.44-2.83-0.2l0.08-0.15c-1.31,0.45-2.84,0.24-3.94,0.75
										c-7.26,0.19-14.2,0.66-21.27,0.95c-6.99,0.15-13.82,0.69-20.92,0.81c-1.68-0.3-1.81-0.28-3.62-0.02
										c0.07-0.07,0.18-0.09,0.06-0.14c-0.07,0.33-1.28,0.1-1.44,0.43c-2.62,0.08-5.03,0.34-7.73,0.52
										c0.42-0.06,0.62-0.34,0.11-0.29l-0.52,0.24l-0.09-0.08c-0.34,0.07-0.71,0.26-0.35,0.34c-6.75,0.73-13.45,0.6-20.07,1.25
										c-1.59-0.01-3.81,0.33-5.51,0.55c-5.1,0.02-9.7,0.14-14.81,0.97C64.63,145.76,65.21,144.85,67.32,144.44z"/>
									<path class="st5" d="M293.16,144.19c-0.18-0.17-0.77-0.26-0.3-0.47C292.92,143.87,293.22,144.04,293.16,144.19z"/>
									<path class="st5" d="M277.41,142.04c-0.02,0.05-0.22-0.08-0.27-0.11c0.19,0,0.38-0.13,0.53-0.04
										C277.48,141.9,277.51,141.98,277.41,142.04z"/>
									<path class="st5" d="M273.39,141.73c0.07-0.14,0.94-0.21,1.45-0.2L273.39,141.73z"/>
									<path class="st5" d="M269.68,140.89c-0.32-0.14-0.22-0.2,0.21-0.17C269.92,140.8,269.77,140.83,269.68,140.89z"/>
									<path class="st5" d="M269.39,141.21c-0.31-0.02-0.46-0.11-0.61-0.2C268.79,141.13,269.51,140.97,269.39,141.21z"/>
									<path class="st5" d="M261.28,140.21c-0.2,0-0.63,0.09-0.8-0.09C260.68,140.24,261.45,140,261.28,140.21z"/>
									<path class="st5" d="M257.48,140.14c-0.12-0.02-0.17-0.05-0.31-0.02c-0.22-0.08,0.03-0.17,0.22-0.17L257.48,140.14z"/>
									<polygon class="st5" points="188.29,137.38 188.7,137.31 188.64,137.45 									"/>
									<path class="st5" d="M157.94,137.48c-0.41,0.1-0.29-0.13-0.36-0.15C157.96,137.31,157.45,137.51,157.94,137.48z"/>
									<polygon class="st5" points="141.61,138.63 141.74,138.62 141.71,138.92 									"/>
								</g>
							</g>
						</g>
					</g>
				</g>
			</g>
			<g class="st4">
				<g>
					<g>
						<path class="st5" d="M269.61,129.87c-0.09-0.62,0.09-1.42,0.57-2.41c0.27-0.44,0.66-1.14,1.14-2.09
							c0.26-0.59,0.58-0.88,0.95-0.86c0.42,0.01,0.7,0.4,0.86,1.16c0.12,0.59,0.04,1.23-0.22,1.93c-0.12,0.26-0.42,0.82-0.9,1.66
							c-0.21,0.37-0.42,0.75-0.63,1.11c-0.3,0.45-0.59,0.67-0.87,0.66C270.04,131.01,269.74,130.62,269.61,129.87z"/>
					</g>
				</g>
				<g>
					<text transform="matrix(0.9998 -0.0196 0.0196 0.9998 37.3991 135.0018)"><tspan x="0" y="0" class="st5 st6 st7">A</tspan><tspan x="54.14" y="0" class="st5 st6 st8">mazone</tspan><tspan x="203.4" y="0" class="st5 st6 st9">s</tspan></text>
					<path class="st5" d="M232.12,104.81c0,0.98-0.8,1.78-1.78,1.78c-0.98,0-1.78-0.8-1.78-1.78c0-0.98,0.8-1.78,1.78-1.78
						C231.33,103.03,232.12,103.82,232.12,104.81z"/>
				</g>
			</g>
			<g>
				<g>
					<path class="st5" d="M267.82,129.43c-0.09-0.62,0.09-1.42,0.57-2.41c0.27-0.44,0.66-1.14,1.14-2.09
						c0.26-0.59,0.58-0.88,0.95-0.86c0.42,0.01,0.7,0.4,0.86,1.16c0.12,0.59,0.04,1.23-0.22,1.93c-0.12,0.26-0.42,0.82-0.9,1.66
						c-0.21,0.37-0.42,0.75-0.63,1.11c-0.3,0.45-0.59,0.67-0.87,0.66C268.25,130.57,267.95,130.18,267.82,129.43z"/>
				</g>
			</g>
			<g>
				<text transform="matrix(0.9998 -0.0196 0.0196 0.9998 34.979 135.3159)"><tspan x="0" y="0" class="st5 st6 st7">A</tspan><tspan x="54.14" y="0" class="st5 st6 st8">mazone</tspan><tspan x="203.4" y="0" class="st5 st6 st9">s</tspan></text>
				<path class="st5" d="M229.7,105.12c0,0.98-0.8,1.78-1.78,1.78c-0.98,0-1.78-0.8-1.78-1.78c0-0.98,0.8-1.78,1.78-1.78
					C228.91,103.34,229.7,104.14,229.7,105.12z"/>
			</g>
			<rect x="1.4" y="30.1" class="st10" width="308.93" height="135.47"/>
		</g>
	</g>
	<g>
		<path class="st11" d="M199.05,4.92c-2.29-1.41-20.5-3.17-30.7-3.17c-10.21,0-28.41,1.76-30.7,3.17c-2.29,1.41-2.99,2.29-2.99,5.28
			c0,2.59,0,35.38,0,45.74c0,1.58,0.77,4.95,0.88,5.28c1.41,4.22,8.8,13.02,18.83,20.76c10.03,7.74,12.49,8.62,13.99,8.62
			c1.49,0,3.96-0.88,13.99-8.62c10.03-7.74,17.42-16.54,18.83-20.76c0.11-0.33,0.88-3.7,0.88-5.28c0-10.36,0-43.15,0-45.74
			C202.04,7.21,201.34,6.33,199.05,4.92z"/>
		<path class="st12" d="M195.75,9.36c-2.04-1.26-18.29-2.83-27.4-2.83c-9.11,0-25.36,1.57-27.4,2.83c-2.04,1.26-2.67,2.04-2.67,4.71
			c0,2.32,0,31.58,0,40.83c0,1.41,0.69,4.41,0.78,4.71c1.26,3.77,7.85,11.62,16.8,18.53c8.95,6.91,11.15,7.69,12.48,7.69
			c1.33,0,3.53-0.79,12.48-7.69c8.95-6.91,15.55-14.76,16.8-18.53c0.1-0.3,0.78-3.3,0.78-4.71c0-9.25,0-38.51,0-40.83
			C198.42,11.4,197.79,10.62,195.75,9.36z"/>
		<g>
			<linearGradient id="SVGID_1_" gradientUnits="userSpaceOnUse" x1="143.6524" y1="53.8254" x2="161.9568" y2="44.7335">
				<stop  offset="0" style="stop-color:#0068A2;stop-opacity:0.8"/>
				<stop  offset="0.2705" style="stop-color:#155984;stop-opacity:0.8541"/>
				<stop  offset="0.569" style="stop-color:#1B4D6B;stop-opacity:0.9138"/>
				<stop  offset="0.8229" style="stop-color:#1C455D;stop-opacity:0.9646"/>
				<stop  offset="1" style="stop-color:#1C4258"/>
			</linearGradient>
			<path class="st13" d="M192.9,13.19c-1.83-1.12-16.39-2.53-24.55-2.53c-8.16,0-22.72,1.41-24.55,2.53
				c-1.83,1.13-2.39,1.83-2.39,4.22c0,2.08,0,28.29,0,36.58c0,1.27,0.62,3.96,0.7,4.22c1.13,3.38,7.04,10.41,15.05,16.61
				c8.02,6.19,9.99,6.89,11.19,6.89c1.19,0,3.16-0.7,11.19-6.89c8.02-6.19,13.93-13.23,15.05-16.61c0.09-0.26,0.7-2.96,0.7-4.22
				c0-8.29,0-34.5,0-36.58C195.29,15.02,194.73,14.31,192.9,13.19z"/>
			
				<radialGradient id="SVGID_00000033347002614566426540000003464592212032585133_" cx="-167.4627" cy="-1141.0485" r="39.229" fx="-168.6294" fy="-1111.476" gradientTransform="matrix(0.8037 0 0 0.8037 302.5881 965.4405)" gradientUnits="userSpaceOnUse">
				<stop  offset="0" style="stop-color:#2680C4;stop-opacity:0.4"/>
				<stop  offset="0.086" style="stop-color:#256DA1;stop-opacity:0.468"/>
				<stop  offset="0.1893" style="stop-color:#235C84;stop-opacity:0.5498"/>
				<stop  offset="0.3006" style="stop-color:#21506F;stop-opacity:0.6378"/>
				<stop  offset="0.4221" style="stop-color:#1E4862;stop-opacity:0.7339"/>
				<stop  offset="0.5613" style="stop-color:#1D445B;stop-opacity:0.844"/>
				<stop  offset="0.7585" style="stop-color:#1C4258"/>
			</radialGradient>
			<path style="fill:url(#SVGID_00000033347002614566426540000003464592212032585133_);" d="M192.9,13.19
				c-1.83-1.12-16.39-2.53-24.55-2.53c-8.16,0-22.72,1.41-24.55,2.53c-1.83,1.13-2.39,1.83-2.39,4.22c0,2.08,0,28.29,0,36.58
				c0,1.27,0.62,3.96,0.7,4.22c1.13,3.38,7.04,10.41,15.05,16.61c8.02,6.19,9.99,6.89,11.19,6.89c1.19,0,3.16-0.7,11.19-6.89
				c8.02-6.19,13.93-13.23,15.05-16.61c0.09-0.26,0.7-2.96,0.7-4.22c0-8.29,0-34.5,0-36.58C195.29,15.02,194.73,14.31,192.9,13.19z"
				/>
		</g>
		<g>
			<g class="st15">
				<g class="st16">
					<polygon class="st17" points="176.13,24.36 187.19,33.33 180.97,44.74 169.91,35.77 					"/>
					<polygon class="st17" points="161.24,33.6 170.41,41.05 166.46,48.3 157.29,40.86 					"/>
					<polygon class="st17" points="172.5,45.6 179.25,51.07 175.9,57.21 169.15,51.74 					"/>
					<polygon class="st17" points="157.41,16.22 162.32,20.21 159.7,25.03 154.78,21.05 					"/>
					<polygon class="st17" points="183.01,36.97 194.43,40.3 193.63,55.73 182.2,52.39 					"/>
					<polygon class="st17" points="172.05,54.26 175.13,56.76 173.28,60.17 170.2,57.67 					"/>
					<polygon class="st17" points="180.59,47.23 183.67,49.73 181.81,53.14 178.73,50.64 					"/>
				</g>
				<g class="st18">
					<polygon class="st17" points="181.34,26.25 188.66,32.77 182.67,40.36 175.35,33.84 					"/>
					<polygon class="st17" points="170.72,30.73 176.79,36.14 172.97,40.97 166.9,35.56 					"/>
					<polygon class="st17" points="177.84,39.33 182.31,43.31 179.08,47.39 174.61,43.41 					"/>
					<polygon class="st17" points="170.03,42.2 173.28,45.1 170.74,48.31 167.49,45.41 					"/>
					<polygon class="st17" points="187.64,36.15 192.61,40.58 188.52,45.75 183.55,41.33 					"/>
					<polygon class="st17" points="179.09,49.67 181.13,51.49 179.34,53.76 177.3,51.94 					"/>
				</g>
			</g>
			<g class="st19">
				<g class="st16">
					<polygon class="st17" points="170.8,12.49 180.08,21.97 174.87,34.02 165.59,24.54 					"/>
					<polygon class="st17" points="158.52,28.64 167.32,32.65 167.11,38.94 158.32,34.94 					"/>
					<polygon class="st17" points="167.75,34.93 173.42,40.71 170.61,47.2 164.95,41.41 					"/>
					<polygon class="st17" points="159.67,39.88 163.79,44.09 161.59,49.19 157.46,44.97 					"/>
					<polygon class="st17" points="176.57,25.81 186.16,29.33 185.48,45.63 175.89,42.11 					"/>
					<polygon class="st17" points="167.38,44.08 169.97,46.72 168.41,50.32 165.83,47.69 					"/>
					<polygon class="st17" points="174.54,36.65 177.13,39.29 175.57,42.9 172.98,40.26 					"/>
				</g>
				<g class="st20">
					<polygon class="st17" points="166.8,12.95 173.72,19.9 168.05,28.01 161.14,21.05 					"/>
					<polygon class="st17" points="155.23,16.35 162.44,23.37 158.9,28.65 151.69,21.64 					"/>
					<polygon class="st17" points="163.49,26.9 167.71,31.15 164.66,35.51 160.44,31.26 					"/>
					<polygon class="st17" points="156.11,29.97 159.18,33.06 156.79,36.49 153.72,33.39 					"/>
					<polygon class="st17" points="172.75,23.51 178.38,29.17 173.75,35.8 168.12,30.14 					"/>
					<polygon class="st17" points="164.68,37.94 166.6,39.87 164.91,42.3 162.99,40.36 					"/>
				</g>
				<g class="st21">
					<polygon class="st17" points="176.27,16.19 184.2,23.04 179.38,31.21 171.44,24.35 					"/>
					<polygon class="st17" points="183.87,26.84 187.78,30.48 184.94,34.97 181.03,31.34 					"/>
					<polygon class="st17" points="169.53,38.4 172.09,40.66 170.18,43.82 167.62,41.57 					"/>
					<polygon class="st17" points="171.06,27.79 175.41,31.75 171.9,37.39 167.54,33.43 					"/>
					<polygon class="st17" points="165.16,21.35 168.84,24.74 166.31,28.77 162.63,25.39 					"/>
					<polygon class="st17" points="189.22,23.82 191.95,26.31 190.18,29.15 187.45,26.67 					"/>
					<polygon class="st17" points="165.7,14.61 168.26,16.86 166.35,20.02 163.79,17.77 					"/>
					<polygon class="st17" points="178.47,32.31 181.86,35.3 179.33,39.47 175.95,36.49 					"/>
					<polygon class="st17" points="185.26,15.43 187.82,17.68 185.91,20.84 183.35,18.59 					"/>
				</g>
			</g>
		</g>
	</g>
</g>
</svg>
