<?xml version="1.0" encoding="utf-8"?>
<!-- Generator: Adobe Illustrator 25.4.1, SVG Export Plug-In . SVG Version: 6.00 Build 0)  -->
<svg version="1.1" id="Camada_1" xmlns="http://www.w3.org/2000/svg" xmlns:xlink="http://www.w3.org/1999/xlink" x="0px" y="0px"
	 viewBox="0 0 198.3 108.92" style="enable-background:new 0 0 198.3 108.92;" xml:space="preserve">
<style type="text/css">
	.st0{fill:#059399;}
	.st1{font-family:'SouvenirITCbyBT-Light';}
	.st2{font-size:21.4195px;}
	.st3{font-size:74.7069px;}
	.st4{fill-rule:evenodd;clip-rule:evenodd;fill:#059399;}
</style>
<g>
	<text transform="matrix(1 0 0 1 7.2445 102.5134)"><tspan x="0" y="0" class="st0 st1 st2">C</tspan><tspan x="15.15" y="0" class="st0 st1 st2">O</tspan><tspan x="31.86" y="0" class="st0 st1 st2">M</tspan><tspan x="49.62" y="0" class="st0 st1 st2">U</tspan><tspan x="64.78" y="0" class="st0 st1 st2">N</tspan><tspan x="80.44" y="0" class="st0 st1 st2">I</tspan><tspan x="86.2" y="0" class="st0 st1 st2">C</tspan><tspan x="101.35" y="0" class="st0 st1 st2">A</tspan><tspan x="115.47" y="0" class="st0 st1 st2">Ç</tspan><tspan x="130.62" y="0" class="st0 st1 st2">Õ</tspan><tspan x="147.32" y="0" class="st0 st1 st2">E</tspan><tspan x="160.39" y="0" class="st0 st1 st2">S</tspan></text>
	<text transform="matrix(1 0 0 1 1.4896 73.738)"><tspan x="0" y="0" class="st0 st1 st3">O</tspan><tspan x="57.45" y="0" class="st0 st1 st3">I</tspan><tspan x="77.84" y="0" class="st0 st1 st3">D</tspan><tspan x="132.16" y="0" class="st0 st1 st3">Ê</tspan></text>
	<path class="st4" d="M187.49,12.65h0.52l0,0c1.05,0,1.57,0,1.57-0.52c0.52-0.52,1.05-0.52,1.05-1.04c0-0.52-0.52-1.05-0.52-1.05
		c-0.52-0.52-1.04-0.52-1.57-0.52c-0.52,0-0.52,0-0.52,0c-0.52,0-0.52,0.52-0.52,0.52V12.65z M184.88,8.99h4.18
		c0.52,0,1.57,0,2.09,0.52c0.52,0.52,0.52,1.04,0.52,1.57c0,0.52,0,0.52-0.52,1.04c-0.52,0-1.05,0.52-2.09,0.52
		c0.52,0.52,1.04,0.52,1.57,1.04c0,0,0.52,0.52,0.52,1.04v0.52c0,0.52,0.52,1.05,0.52,1.05c0.52,0,0.52,0,0.52-0.52
		c0,0,0-0.52,0-1.04h0.52v0.52c0,0.52,0,0.52-0.52,1.05c0,0.52-0.52,0.52-1.04,0.52c0,0-0.52,0-0.52-0.52c-0.52,0-0.52,0-0.52,0
		c0-0.52,0-1.05,0-1.05c0-0.52,0-1.04-0.52-1.04c0-0.52,0-1.04-0.52-1.04c0,0-0.52-0.52-1.05-0.52h-0.52v2.61
		c0,0.52,0,0.52,0.52,0.52c0,0.52,0.52,0.52,0.52,0.52l0,0h-3.66l0,0c0.52,0,1.04,0,1.04-0.52c0.52,0,0.52,0,0.52-0.52v-4.7
		c0-0.52,0-0.52-0.52-1.04c0,0-0.52,0-1.04,0V8.99z M188.53,6.9c-0.52,0-1.57,0.52-2.09,0.52c-0.52,0.52-1.57,1.04-2.09,1.57
		c-0.52,0.52-1.04,1.04-1.04,1.57c-0.52,1.05-0.52,1.57-0.52,2.61c0,0.52,0,1.04,0.52,2.09c0,0.52,0.52,1.05,1.04,1.57
		c0.52,0.52,1.57,1.04,2.09,1.57c0.52,0,1.57,0.52,2.09,0.52c1.05,0,1.57-0.52,2.09-0.52c1.04-0.52,1.57-1.04,2.09-1.57
		c0.52-0.52,1.04-1.04,1.04-1.57c0.52-1.04,0.52-1.57,0.52-2.09c0-1.04,0-1.57-0.52-2.61c0-0.52-0.52-1.04-1.04-1.57
		c-0.52-0.52-1.05-1.04-2.09-1.57C190.1,7.42,189.58,6.9,188.53,6.9L188.53,6.9z M188.53,6.38c1.05,0,1.57,0,2.61,0.52
		c1.04,0,1.57,0.52,2.09,1.57c0.52,0.52,1.04,1.04,1.57,2.09c0,0.52,0.52,1.57,0.52,2.61c0,0.52-0.52,1.57-0.52,2.09
		c-0.52,1.05-1.05,1.57-1.57,2.61c-0.52,0.52-1.57,1.04-2.09,1.04c-1.05,0.52-1.57,0.52-2.61,0.52c-1.04,0-1.57,0-2.61-0.52
		c-0.52,0-1.57-0.52-2.09-1.57c-0.52-0.52-1.05-1.04-1.57-2.09c0-0.52,0-1.57,0-2.09c0-1.04,0-2.09,0-2.61
		c0.52-1.04,1.05-1.57,1.57-2.09c0.52-1.04,1.57-1.57,2.09-1.57C186.97,6.38,187.49,6.38,188.53,6.38L188.53,6.38z"/>
</g>
</svg>
