<svg xmlns="http://www.w3.org/2000/svg" xmlns:xlink="http://www.w3.org/1999/xlink" viewBox="0 0 162.4 86.86"><defs><style>.cls-1{font-size:5.01px;stroke-width:0.5px;font-family:OriyaSangamMN, Oriya Sangam MN;letter-spacing:0.2em;}.cls-1,.cls-6,.cls-7{fill:#1b4258;}.cls-1,.cls-11,.cls-12{stroke:#1b4258;stroke-miterlimit:10;}.cls-2{letter-spacing:0.07em;}.cls-3{letter-spacing:0.2em;}.cls-4{opacity:0.15;}.cls-5{fill:#35586b;}.cls-7{font-size:42.86px;font-family:Aspire-DemiBold, Aspire;font-weight:300;}.cls-8{font-size:46.15px;letter-spacing:0em;}.cls-9{font-size:45.71px;letter-spacing:0em;}.cls-10,.cls-12{fill:none;}.cls-11,.cls-17{fill:#fff;}.cls-13{fill:url(#Gradiente_sem_nome_172);}.cls-14{fill:url(#Gradiente_sem_nome_253);}.cls-15{opacity:0.52;}.cls-16{opacity:0.07;}.cls-18{opacity:0.2;}.cls-19{opacity:0.78;}.cls-20{opacity:0.1;}.cls-21{opacity:0.3;}</style><linearGradient id="Gradiente_sem_nome_172" x1="74.78" y1="27.87" x2="84.4" y2="23.09" gradientUnits="userSpaceOnUse"><stop offset="0" stop-color="#006799" stop-opacity="0.8"/><stop offset="0.18" stop-color="#075e88" stop-opacity="0.85"/><stop offset="0.66" stop-color="#164965" stop-opacity="0.96"/><stop offset="1" stop-color="#1b4258"/></linearGradient><radialGradient id="Gradiente_sem_nome_253" cx="-412.34" cy="-1526.93" fy="-1511.3814922008064" r="20.62" gradientTransform="translate(418.97 1252.2) scale(0.8)" gradientUnits="userSpaceOnUse"><stop offset="0" stop-color="#2580bc" stop-opacity="0.4"/><stop offset="0.06" stop-color="#2374a9" stop-opacity="0.51"/><stop offset="0.35" stop-color="#1d4e6b" stop-opacity="0.88"/><stop offset="0.76" stop-color="#1b4258"/></radialGradient></defs><g id="Camada_2" data-name="Camada 2"><g id="Camada_1-2" data-name="Camada 1"><text class="cls-1" transform="translate(99.14 84.34)">COMMUNIC<tspan class="cls-2" x="40.2" y="0">A</tspan><tspan class="cls-3" x="44.78" y="0">TION</tspan></text><g class="cls-4"><path class="cls-5" d="M154.22,76.56c.45-.06-.24-.25.29-.11C154.45,76.57,154.37,76.66,154.22,76.56Z"/><path class="cls-5" d="M35,76.63c1.35-.9,3.31-.34,4.82-1,.18,0,0,.42.4.28,1.45-.73,3.88-.6,5.76-.29l-.1.13c.36,0,.75-.37,1.13-.35,0,.08-.11.12,0,.22.08-.24.67-.16.81-.35.16.08.16.26.36.35l.19-.28c.54-.68,1.44-.07,2.23-.46,0,.07-.12.12-.05.18a22.82,22.82,0,0,1,4.35-.77.35.35,0,0,0,0,.37c0-.28.5-.39.88-.47.2.28.65-.31,1.12-.18l0,.07c.32-.33.51.14.76-.24l.23.21c.12-.41.5.19.77,0l0-.08c.26-.12.41.08.65,0l0,0c.56-.15.91.06.88-.26.21.25-.55.15-.21.51a31.22,31.22,0,0,1,5.7-.58c.22.12.36.15.42.27.18-.07.71-.1.87-.27-.06,0,.13.16.23.17.35.11.36-.37.75-.24-.15.09-.2.2-.14.32a2.44,2.44,0,0,1,1.12-.34c-.05.05-.14.09-.13.19.41-.3.77,0,1.13-.17l-.13.19c.6.2.16-.39.67-.28-.12.07-.07.14-.09.21.46-.35,1.23-.27,1.7-.41a.13.13,0,0,0,0,.08,8.38,8.38,0,0,0,1.62-.14c.21.08,0,.46.49.37,0-.37.93-.18.59-.59a4.34,4.34,0,0,0,1.52,0c-.2.15.24.45-.15.49l.3.22c0,.15-.3,0-.2.15a3.86,3.86,0,0,1,.93-.13c.36-.24.68-.67,1.26-.73-.27.15.17.4,0,.47l.8-.73c.19,0,0,.29.33.19,0-.1.1-.16.18-.24s.81-.12.9.25c.09.14-.31.08-.09.21s.37-.14.73-.15v0c.23,0,.69-.17.43-.36-.17,0,.07.21-.18.11a1.32,1.32,0,0,1,.94-.29c-.12.06-.11.16-.15.26a5,5,0,0,1,1.52-.52c0-.17-.19.32-.27.23.69.23,1.42-.36,2,0-.1,0,0-.24,0-.2.34,0,.32.27.54.18,0,.14.27,0,.49-.1s.06.07-.13.09a4.81,4.81,0,0,1,2.27-.16c0-.09.44-.36.61-.35l-.06.23c.15.14.55,0,.58.17.35-.28-1.36.25-.88,0,.12.19.66-.37.56-.06.33,0,.65-.27,1,0-.09,0-.27.32,0,.3.47,0,.13-.11.52-.19l.24-.1c0-.22.42,0,.24-.22.06.19.69-.11.64.26l-.06.29c.2,0,.33-.3.49-.43,0,0,.08.08.07.13,0-.44.49,0,.73-.3.43.15,1.09,0,1.29.29a1.61,1.61,0,0,1,1-.2c-.08,0-.18.06-.2.15.23.13.29,0,.51,0,0,.06.47.26.73.42.32-.13.21-.37.25-.52.29.44.93-.27,1.3.13-.12.06-.48.21-.21.32.29.45.6-.31,1.08-.1l-.11-.36c.21.23.71-.21.66.16.16-.13.56.13.52-.22.78.3,1.93-.16,2.4.49.12-.06.4,0,.34-.17s-.26.13-.33,0c.1,0,.13-.1.14-.15.24.09.44.12.2.41.54.23.57-.6,1.27-.44,0,.14,0,.2.22.18l.39-.24c.45.06.25.33.26.58.24,0,.53,0,.65-.2l.28.32c-.21-.23.2-.14.32-.2l-.12.06c0,.1.32,0,.47,0,0-.16-.32-.23-.47-.28.12-.1.32-.07.48-.2-.06.25.39.19.58.22s.25-.21.32-.2.35,0,.18.2-.17-.13-.3,0c.15.1.12.32.43.17s0-.49.38-.32c-.12.06-.14.15-.23.24l.4.14,0-.23c.05.06,0,.08,0,.11.12-.23.61-.05.71-.31.2,0,.42.16.62.19l0,0a.73.73,0,0,0,.75-.08v0a.87.87,0,0,0,.6-.13c.32.18.09.84.46.57.33,0,.53-.39.4-.54.59.17,1.28-.18,1.82.18.09-.08,0-.14.22-.19.87.13,1.86-.19,2.54.28-.26.08,0,.22,0,.35.22-.19.25.22.34-.12s0-.3-.23-.39a2.87,2.87,0,0,1,1.6.16c-.14-.1,0-.16.1-.21-.06.32.32.39.62.29l0-.19.18.21c.12-.06.15-.4.43-.2a.35.35,0,0,0,.07.21c.31-.14.75-.38,1.07-.19l.25.3c.14,0,.39-.18.15-.28.55.2.9.25,1.06.51a6.33,6.33,0,0,1,3.51-.33l0,.14c.29.16.17-.24.37-.12-.1.13.21.32,0,.47.42.19.57-.21.86-.26,0-.19-.24.11-.17-.13.06-.07.59.19.67-.09.1.12,0,.33-.06.44l.27-.12c.29.36-.78.55-.47,1l.24,0c.21.32-.66.29-.07.44.28-.12.53-.53.31-.67.55,0,.31-.67.89-.6.15.18-.47,0-.38.25.26.25.57-.09.81,0-.27-.13,0-.4.17-.44.29.16-.22.26.2.32.09-.16.48-.26.16-.4.18-.37.43.14.68-.13.12.27-.48.58,0,.75-.05-.26.6-.31.39-.71a.26.26,0,0,1,0,.44c.25.18.67-.42.71.1l.11-.25c.08.09.19.16.31.31s.77-.29.72.1c.07,0,.59,0,.41-.26s-.39.17-.54-.22c.21.32.48,0,.67-.09l0,.16c.12,0,.37,0,.45-.16a.14.14,0,0,0,0,.23l.14-.22c.46-.08.07.42.52.39l-.35.15c.08,0,.21.2.43.14s.27-.45.35-.61c.26-.07.1.25.36,0l-.34.23c-.06.07.19.37.52.39s.57-.34.25-.48c.16,0,.39.16.24.3.39,0,0-.23.31-.34.12.16.52.39.75.62l-.36.33.22,0c-.31.26.13.23-.06.52a.79.79,0,0,0,.51-.1c-.42-.52.55-.62.45-1.07.63-.08.31,1.1,1,.46-.1-.13.23-.44-.17-.34.38.08.29-.42.73-.21-.34.16.33.47-.17.7,0-.14-.26-.13-.34-.09.14.18-.07.44.33.47.24,0,.57,0,.54-.25s-.37,0-.2-.24c.49,0,.54.33.77-.1-.31,0-.36-.25-.34-.42l.35-.08-.08.16c.56.16.19-.29.73-.21l.24.35c-.15.28-.79-.18-.72.29.35,0,.48-.19.81,0l-.26.07c.13,0,.22.65.75.32.27-.12.08-.16.09-.33.58,0,.76-.18,1.13-.19-.1.34.64.08.22.4a1.06,1.06,0,0,0-1.22.07c.18.41-.45-.09-.6.31.46,0,.41.43.47.7.12,0,.25-.08.33-.11.07-.25-.09-.25-.09-.5a1.74,1.74,0,0,0,1.3-.23.21.21,0,0,1-.1.38,8.49,8.49,0,0,1,1.83.14c-.35-.42.65-.06.41-.4-.3-.11-.55-.41-.37-.58.19,0,0,.18.06.27.25-.21.36.36.62,0-.56.1-.13.48-.25.79.41-.15,0,.22.37.24a5.91,5.91,0,0,1,1.35-.31c.54.32,1.41.06,1.9.07.26.17.07.51.35.59s-.23-.39.25-.22l-.05.07c.16-.08.9.27,1.06-.24l-.16.38c.09,0,.18,0,.25-.09,0,.13.11.24,0,.32.29.27.63,0,1,0l-.21-.23c.57-.16.94.07,1.49,0l0,.22.32-.13c-.08.22.22.36.39.18l-.85.54c-.23-.14.26-.27.12-.49a.51.51,0,0,0-.72.08c.19,0,.2,0,.36-.1.06.31-.24.29-.39.5.1,0,.25.08.27,0a1.11,1.11,0,0,1-.74.17c.23-.11-.12-.19,0-.28,0,.27-.35.35-.76.26-.29-.32-.78.18-1.26.08a1.62,1.62,0,0,1,.75-.58c-.29-.15-.33,0-.63-.15-.15.2-.26.52-.66.62v-.2c-.36.09-.37.39-.82.32-.77-.14-1.56-.16-2.15-.22v-.21c-.35.42-1.1.11-1.55.28-.74-.23-1.65.09-2-.28a19.93,19.93,0,0,1-3.86,0l.25-.28c-.26.2-.15-.18-.39-.15.26.25-.36.28-.54.44a3,3,0,0,0-2,.08v-.2c-.57.34-1.2,0-1.87-.16-.07-.09-.18-.29-.39-.29-.39.3-.58.26-1.14.42a5.59,5.59,0,0,1-1.42-.32c-1.52.34-3-.07-4.57.08l-.09-.24c-1.54.39-3.34-.2-4.63,0l.15-.39c-.39-.16-.92,0-.83.34-.39-.15-1,.13-1.25-.22-.4-.1-.51.16-.85.19a5.55,5.55,0,0,0-1.89-.14l.19,0c.09-.09.11-.26-.08-.3s-1.06-.16-.79.34c-.81-.32-1.93.15-2.72-.26.07.14-.13.16-.22.24-.73,0-1.48-.3-2.06-.09-.12-.07.19-.22-.11-.24s0,.17-.22.24c-1.18.22-2.38-.32-3.45-.28-1.92.19-3.89,0-5.71,0l0-.1c-.61.36-1.42-.4-1.92.16-.14-.1-.55,0-.44-.24-.49.26-1.36-.26-2.06.06a.28.28,0,0,0,.18-.05c-.71-.22-1.34.06-2.09-.13.08,0,.22-.07.24-.17-.29-.19-.69.41-.84-.06-.17,0-.12.24,0,.22a28.24,28.24,0,0,0-5.09.23c-1.22-.27-.08-.79-1-.44-.08-.08-.06.19-.07.09-.37.13-.59-.52-.84-.28.11.29-.17.17-.18.34-.75-.18-.9-.44-1.49-.21l0-.16c-.68.44-1.49.23-2.06.73-3.81.14-7.45.52-11.16.7s-7.25.42-11,.36A2.28,2.28,0,0,0,60.06,76c0-.06.1-.08,0-.14,0,.33-.67.07-.75.39-1.38,0-2.64.19-4.05.29.22,0,.32-.33.05-.29l-.26.23,0-.09c-.18.06-.37.24-.18.33-3.53.52-7.07.14-10.54.52a12.67,12.67,0,0,0-2.89.32,26.08,26.08,0,0,0-7.79.28A1.94,1.94,0,0,1,35,76.63Z"/><path class="cls-5" d="M153.68,76.59c-.09-.16-.4-.25-.15-.47C153.56,76.27,153.72,76.45,153.68,76.59Z"/><path class="cls-5" d="M145.44,74.67s-.12-.08-.14-.1.2-.14.28-.06C145.47,74.52,145.49,74.6,145.44,74.67Z"/><path class="cls-5" d="M143.33,74.45c0-.14.5-.23.76-.23Z"/><path class="cls-5" d="M141.4,73.73c-.16-.13-.11-.2.12-.18C141.53,73.63,141.45,73.66,141.4,73.73Z"/><path class="cls-5" d="M141.24,74.05a.39.39,0,0,1-.32-.18C140.92,74,141.31,73.81,141.24,74.05Z"/><path class="cls-5" d="M137,73.33c-.11,0-.34.1-.42-.07C136.68,73.39,137.09,73.12,137,73.33Z"/><path class="cls-5" d="M135,73.39c-.06,0-.08,0-.16,0s0-.18.12-.18Z"/><polygon class="cls-5" points="98.56 72.22 98.78 72.15 98.75 72.29 98.56 72.22"/><path class="cls-5" d="M82.6,72.28c-.22.1-.15-.13-.19-.16C82.6,72.11,82.34,72.31,82.6,72.28Z"/><polygon class="cls-5" points="74.02 73.23 74.08 73.22 74.07 73.52 74.02 73.23"/></g><path class="cls-5" d="M153.9,75.61c.45-.06-.24-.25.29-.11C154.13,75.62,154.05,75.71,153.9,75.61Z"/><path class="cls-5" d="M34.67,75.68c1.34-.9,3.3-.34,4.81-1,.18,0,0,.42.4.28,1.46-.73,3.88-.59,5.76-.29l-.1.13c.36,0,.75-.37,1.13-.35,0,.08-.11.12,0,.22.07-.24.66-.16.8-.35.16.08.16.26.36.35l.19-.28c.54-.68,1.44-.07,2.23-.46,0,.07-.11.12,0,.18a22.57,22.57,0,0,1,4.34-.77.35.35,0,0,0,0,.37c.05-.28.5-.38.88-.47.2.28.66-.31,1.12-.18l0,.07c.32-.33.51.14.76-.24l.23.22c.12-.42.5.18.77,0V73c.25-.11.4.08.64,0l0,0c.57-.14.91.06.88-.25.22.24-.55.14-.21.5a31.22,31.22,0,0,1,5.7-.58c.22.12.36.15.42.27.18-.07.71-.09.87-.27-.06,0,.13.16.23.17.35.11.36-.36.75-.24-.15.09-.19.2-.14.32.31-.27.75-.24,1.13-.34-.06.06-.15.09-.13.19.4-.3.76,0,1.12-.16l-.13.19c.6.2.16-.4.67-.29-.12.07-.07.14-.09.21.46-.35,1.24-.27,1.71-.4,0,0,0,.07,0,.07a8.38,8.38,0,0,0,1.62-.14c.21.08,0,.46.49.37,0-.37.93-.18.59-.59a4.36,4.36,0,0,0,1.52,0c-.2.14.24.44-.14.49l.3.21c0,.15-.31,0-.21.15a3.93,3.93,0,0,1,.93-.13c.36-.24.68-.67,1.26-.73-.27.15.17.4,0,.47l.8-.73c.19,0,0,.29.33.19,0-.1.1-.16.19-.24s.8-.11.9.25c.08.14-.32.08-.1.21s.37-.14.73-.15v0c.24,0,.69-.17.43-.36-.16,0,.07.22-.18.12a1.3,1.3,0,0,1,.94-.3c-.12.06-.1.16-.15.27a4.91,4.91,0,0,1,1.52-.53c0-.17-.19.32-.27.23.69.23,1.42-.36,2,0-.09,0-.05-.24-.05-.19.34,0,.32.26.54.17,0,.15.27,0,.5-.1s0,.07-.14.09a4.73,4.73,0,0,1,2.28-.15c0-.1.44-.37.6-.36l-.06.23c.15.14.55,0,.58.17.35-.28-1.36.25-.88,0,.12.19.66-.37.56,0,.33,0,.65-.27,1-.06-.09,0-.27.32,0,.3.47,0,.13-.11.52-.19l.24-.1c0-.22.42,0,.24-.21.06.18.69-.12.64.25l-.06.29c.2,0,.33-.3.49-.43,0,0,.08.09.07.13,0-.44.49,0,.73-.3.43.15,1.09,0,1.29.29a1.61,1.61,0,0,1,1-.2c-.08,0-.18.06-.2.15.23.14.29,0,.51,0,0,.06.47.26.73.42.33-.13.22-.37.25-.52.3.45.93-.27,1.3.13-.12.06-.48.21-.21.33.29.44.61-.32,1.08-.11l-.11-.36c.21.23.71-.21.66.17.16-.13.57.12.52-.23.79.3,1.93-.15,2.4.49.12-.06.4,0,.35-.17s-.27.13-.34,0c.1,0,.13-.11.14-.16.24.09.44.12.2.41.54.23.58-.6,1.27-.44,0,.14,0,.2.22.18l.39-.24c.45.06.25.34.26.59.24,0,.53,0,.65-.21l.28.32c-.2-.23.2-.14.32-.2l-.12.06c0,.1.33.05.47,0,0-.16-.32-.23-.47-.28.13-.1.32-.07.48-.2-.06.25.39.19.58.22s.25-.21.32-.2.35,0,.18.2-.17-.13-.29,0c.14.1.12.32.42.17s0-.49.38-.32c-.12.06-.14.15-.23.24l.4.14,0-.22c0,.05,0,.07,0,.1.13-.23.62,0,.71-.31.21,0,.43.16.62.19l0,0a.73.73,0,0,0,.75-.08v0a.94.94,0,0,0,.6-.14c.32.18.09.85.46.57.33,0,.53-.39.4-.54.59.17,1.28-.18,1.82.18.09-.08,0-.14.22-.19.87.13,1.87-.19,2.54.28-.25.08,0,.22,0,.35.21-.19.24.22.33-.12s0-.3-.23-.39a2.86,2.86,0,0,1,1.6.16c-.14-.1,0-.15.1-.21-.06.32.33.39.62.29l.06-.19.17.21c.12-.06.15-.4.43-.2a.41.41,0,0,0,.07.22c.31-.14.76-.39,1.07-.2l.25.3c.14,0,.39-.18.15-.28.55.21.9.25,1.06.51a6.33,6.33,0,0,1,3.51-.33l0,.14c.29.16.17-.24.38-.12-.11.13.2.32-.05.47.42.19.57-.21.86-.26.05-.19-.24.11-.16-.13,0-.06.58.19.67-.09.09.12,0,.33-.07.44l.27-.12c.29.37-.78.55-.47,1l.24,0c.21.32-.66.29-.07.44.28-.12.53-.52.31-.67.55,0,.31-.67.89-.6.15.18-.47,0-.38.25.26.26.57-.09.81,0-.27-.13,0-.4.17-.44.29.16-.22.26.2.32.09-.16.49-.25.16-.4.18-.36.43.14.68-.13.12.27-.48.58,0,.75-.05-.26.6-.3.39-.71a.26.26,0,0,1,0,.44c.25.18.67-.41.72.1l.11-.25c.07.09.18.16.3.32s.77-.3.72.09c.07,0,.6,0,.42-.26s-.39.17-.54-.22c.2.32.47,0,.66-.09l0,.16c.12-.05.37,0,.46-.16a.14.14,0,0,0,0,.24l.14-.23c.46-.08.08.42.52.39l-.35.15c.08,0,.21.2.43.14s.27-.45.36-.61c.25-.07.09.25.35.05l-.34.24c0,.06.19.36.52.38s.57-.33.25-.48c.16,0,.39.16.24.31.39,0,0-.24.31-.34.12.15.52.38.75.61l-.36.33.22,0c-.31.26.13.23-.05.52a.71.71,0,0,0,.5-.1c-.42-.52.55-.62.46-1.07.62-.07.3,1.1,1,.46-.1-.12.23-.44-.17-.34.38.08.3-.42.74-.21-.35.16.32.47-.18.7,0-.14-.26-.13-.34-.09.15.18-.07.44.33.47.24,0,.57,0,.54-.25s-.37,0-.2-.24c.49-.05.54.34.77-.1-.3,0-.36-.25-.34-.42l.36-.08-.08.16c.55.16.18-.29.73-.21l.23.35c-.15.28-.79-.18-.72.29.35,0,.49-.18.81,0-.07,0-.18,0-.25.07.12,0,.21.66.74.33.27-.13.08-.17.1-.34.57,0,.75-.18,1.12-.19-.1.34.64.08.22.4a1.06,1.06,0,0,0-1.22.07c.18.41-.45-.09-.6.31.46,0,.41.43.47.7.13,0,.26-.08.33-.11.07-.24-.09-.25-.09-.5a1.73,1.73,0,0,0,1.31-.23.21.21,0,0,1-.11.38,8.49,8.49,0,0,1,1.83.14c-.35-.42.65-.06.41-.4-.3-.11-.55-.41-.37-.58.19,0,0,.18.06.27.25-.21.36.37.62,0-.56.09-.13.48-.25.78.41-.15,0,.22.37.24a6,6,0,0,1,1.35-.31c.54.32,1.41.06,1.91.07.25.17.06.51.34.59s-.23-.39.26-.22l-.05.07c.15-.08.89.27,1.05-.24l-.16.38c.09,0,.18,0,.25-.09,0,.13.11.25,0,.32.29.27.64,0,1,0l-.21-.23c.57-.16.94.07,1.49,0l0,.22.33-.13c-.09.22.21.36.39.18l-.86.54c-.23-.14.26-.27.12-.49a.51.51,0,0,0-.72.08c.2,0,.21,0,.36-.1.06.31-.24.29-.39.5.11,0,.25.08.27,0a1.11,1.11,0,0,1-.74.17c.23-.11-.11-.19,0-.28,0,.27-.35.35-.76.26-.29-.32-.78.18-1.26.09a1.69,1.69,0,0,1,.75-.59c-.29-.15-.33,0-.63-.15-.15.2-.26.52-.66.62v-.2c-.36.09-.37.39-.82.32-.77-.14-1.56-.16-2.15-.22v-.2c-.35.41-1.1.1-1.55.27-.74-.23-1.64.1-2-.27a20.76,20.76,0,0,1-3.86,0l.25-.28c-.26.2-.15-.18-.39-.15.26.25-.36.28-.54.44a3,3,0,0,0-2,.08v-.2c-.57.34-1.2,0-1.87-.16-.07-.09-.18-.29-.38-.29a2.85,2.85,0,0,1-1.15.43,6.08,6.08,0,0,1-1.42-.33c-1.52.34-3-.07-4.57.09l-.09-.25c-1.53.39-3.34-.2-4.63,0l.15-.39c-.39-.16-.91,0-.83.34-.39-.15-1,.13-1.24-.22-.41-.1-.52.16-.86.2a5.32,5.32,0,0,0-1.89-.15l.19,0c.09-.09.11-.26-.08-.29s-1.06-.17-.79.33c-.81-.32-1.93.15-2.71-.26.06.14-.14.16-.23.24a6.65,6.65,0,0,0-2.06-.09c-.11-.07.19-.22-.11-.24s0,.17-.22.24c-1.18.22-2.38-.32-3.45-.28-1.91.19-3.89,0-5.71,0l0-.1c-.61.36-1.42-.4-1.92.16-.14-.1-.55,0-.44-.24-.49.26-1.35-.26-2.06.06.07,0,.1,0,.18,0-.71-.22-1.34.07-2.08-.13.07,0,.21-.07.23-.17-.28-.19-.68.41-.84-.06-.17,0-.12.24,0,.22a29.23,29.23,0,0,0-5.09.23c-1.22-.27-.08-.79-1-.43-.08-.09,0,.18-.07.08-.37.13-.58-.52-.84-.27.11.28-.17.16-.18.33-.75-.18-.9-.44-1.49-.21l0-.16c-.69.44-1.49.23-2.07.73-3.81.14-7.45.52-11.16.7s-7.24.42-11,.36A2.24,2.24,0,0,0,59.74,75c0-.07.1-.09,0-.15,0,.33-.67.07-.74.39-1.38,0-2.64.19-4.06.29.22,0,.32-.32.05-.29l-.26.23,0-.09c-.18.06-.37.24-.17.33-3.53.52-7.08.14-10.55.52a13.32,13.32,0,0,0-2.89.32,26.09,26.09,0,0,0-7.79.28A1.94,1.94,0,0,1,34.67,75.68Z"/><path class="cls-5" d="M153.37,75.64c-.1-.16-.41-.25-.16-.47C153.24,75.32,153.4,75.5,153.37,75.64Z"/><path class="cls-5" d="M145.12,73.72s-.12-.08-.14-.1.2-.14.28-.05C145.16,73.57,145.17,73.65,145.12,73.72Z"/><path class="cls-5" d="M143,73.51c0-.15.5-.24.77-.24Z"/><path class="cls-5" d="M141.08,72.78c-.16-.13-.11-.2.12-.18C141.21,72.68,141.13,72.71,141.08,72.78Z"/><path class="cls-5" d="M140.92,73.11a.4.4,0,0,1-.31-.19C140.6,73,141,72.86,140.92,73.11Z"/><path class="cls-5" d="M136.68,72.38c-.1,0-.34.1-.42-.06C136.36,72.44,136.77,72.17,136.68,72.38Z"/><path class="cls-5" d="M134.68,72.44c-.07,0-.09,0-.17,0s0-.18.12-.18Z"/><polygon class="cls-5" points="98.25 71.27 98.46 71.2 98.43 71.34 98.25 71.27"/><path class="cls-5" d="M82.28,71.33c-.21.1-.15-.13-.19-.15C82.29,71.16,82,71.36,82.28,71.33Z"/><polygon class="cls-5" points="73.7 72.28 73.76 72.27 73.75 72.57 73.7 72.28"/><g class="cls-4"><path class="cls-6" d="M141,67.84a2.27,2.27,0,0,1,.3-1.26c.14-.24.34-.6.6-1.1.14-.31.3-.46.5-.46s.37.21.45.61a1.82,1.82,0,0,1-.12,1c-.06.14-.22.44-.47.88l-.33.58c-.16.24-.31.35-.46.35S141.06,68.24,141,67.84Z"/><text class="cls-7" transform="matrix(1, -0.02, 0.02, 1, 18.94, 70.56)">A<tspan class="cls-8" x="28.46" y="0">mazone</tspan><tspan class="cls-9" x="106.92" y="0">s</tspan></text><path class="cls-6" d="M121.28,54.67a.94.94,0,0,1-1.87,0,.94.94,0,1,1,1.87,0Z"/></g><path class="cls-6" d="M140.05,67.61a2.27,2.27,0,0,1,.3-1.26c.14-.24.34-.6.6-1.1.13-.31.3-.46.5-.46s.37.21.45.61a1.82,1.82,0,0,1-.12,1c-.06.14-.22.43-.47.88-.12.19-.22.39-.33.58s-.31.35-.46.35S140.12,68,140.05,67.61Z"/><text class="cls-7" transform="matrix(1, -0.02, 0.02, 1, 17.67, 70.72)">A<tspan class="cls-8" x="28.46" y="0">mazone</tspan><tspan class="cls-9" x="106.92" y="0">s</tspan></text><path class="cls-6" d="M120,54.83a.94.94,0,1,1-.93-.93A.94.94,0,0,1,120,54.83Z"/><rect class="cls-10" y="15.4" width="162.4" height="71.21"/><path class="cls-11" d="M103.9,2.16C102.7,1.42,93.12.5,87.76.5s-14.94.92-16.14,1.66a2.61,2.61,0,0,0-1.57,2.78V29a15.28,15.28,0,0,0,.46,2.77c.74,2.22,4.63,6.84,9.9,10.91s6.56,4.54,7.35,4.54,2.08-.47,7.35-4.54S104.27,34,105,31.76a15.28,15.28,0,0,0,.46-2.77v-24A2.61,2.61,0,0,0,103.9,2.16Z"/><path class="cls-12" d="M102.16,4.5C101.09,3.84,92.55,3,87.76,3S74.43,3.84,73.35,4.5A2.32,2.32,0,0,0,72,7V28.43a14.07,14.07,0,0,0,.41,2.48c.66,2,4.13,6.11,8.84,9.74s5.86,4.05,6.56,4.05,1.86-.42,6.56-4.05,8.17-7.76,8.83-9.74a13,13,0,0,0,.42-2.48V7A2.31,2.31,0,0,0,102.16,4.5Z"/><path class="cls-13" d="M100.67,6.51c-1-.59-8.62-1.33-12.91-1.33s-12,.74-12.91,1.33A2.07,2.07,0,0,0,73.6,8.73V28A12.2,12.2,0,0,0,74,30.18c.59,1.77,3.69,5.47,7.91,8.72s5.25,3.63,5.88,3.63,1.66-.37,5.88-3.63S101,32,101.55,30.18a12.2,12.2,0,0,0,.37-2.22V8.73A2.07,2.07,0,0,0,100.67,6.51Z"/><path class="cls-14" d="M100.67,6.51c-1-.59-8.62-1.33-12.91-1.33s-12,.74-12.91,1.33A2.07,2.07,0,0,0,73.6,8.73V28A12.2,12.2,0,0,0,74,30.18c.59,1.77,3.69,5.47,7.91,8.72s5.25,3.63,5.88,3.63,1.66-.37,5.88-3.63S101,32,101.55,30.18a12.2,12.2,0,0,0,.37-2.22V8.73A2.07,2.07,0,0,0,100.67,6.51Z"/><g class="cls-15"><g class="cls-16"><polygon class="cls-17" points="91.85 12.38 97.66 17.1 94.4 23.09 88.58 18.38 91.85 12.38"/><polygon class="cls-17" points="84.02 17.24 88.84 21.15 86.77 24.97 81.94 21.05 84.02 17.24"/><polygon class="cls-17" points="89.94 23.55 93.49 26.42 91.73 29.65 88.18 26.77 89.94 23.55"/><polygon class="cls-17" points="82.01 8.11 84.59 10.2 83.21 12.74 80.63 10.64 82.01 8.11"/><polygon class="cls-17" points="95.46 19.01 101.47 20.76 101.05 28.87 95.04 27.12 95.46 19.01"/><polygon class="cls-17" points="89.71 28.1 91.33 29.41 90.35 31.2 88.73 29.89 89.71 28.1"/><polygon class="cls-17" points="94.19 24.4 95.81 25.72 94.83 27.51 93.22 26.2 94.19 24.4"/></g><g class="cls-18"><polygon class="cls-17" points="94.59 13.38 98.44 16.8 95.29 20.8 91.44 17.37 94.59 13.38"/><polygon class="cls-17" points="89 15.73 92.19 18.57 90.19 21.11 87 18.27 89 15.73"/><polygon class="cls-17" points="92.75 20.25 95.1 22.34 93.4 24.49 91.05 22.4 92.75 20.25"/><polygon class="cls-17" points="88.64 21.76 90.35 23.29 89.02 24.97 87.31 23.45 88.64 21.76"/><polygon class="cls-17" points="97.9 18.58 100.51 20.91 98.36 23.63 95.75 21.3 97.9 18.58"/><polygon class="cls-17" points="93.41 25.69 94.48 26.64 93.54 27.84 92.47 26.88 93.41 25.69"/></g></g><g class="cls-19"><g class="cls-16"><polygon class="cls-17" points="89.05 6.14 93.92 11.12 91.18 17.46 86.31 12.47 89.05 6.14"/><polygon class="cls-17" points="82.59 14.63 87.22 16.74 87.11 20.05 82.49 17.94 82.59 14.63"/><polygon class="cls-17" points="87.44 17.94 90.42 20.98 88.95 24.39 85.97 21.35 87.44 17.94"/><polygon class="cls-17" points="83.19 20.54 85.36 22.75 84.2 25.43 82.04 23.22 83.19 20.54"/><polygon class="cls-17" points="92.08 13.14 97.12 15 96.76 23.57 91.72 21.71 92.08 13.14"/><polygon class="cls-17" points="87.25 22.75 88.61 24.14 87.79 26.03 86.43 24.64 87.25 22.75"/><polygon class="cls-17" points="91.01 18.84 92.37 20.23 91.55 22.13 90.19 20.74 91.01 18.84"/></g><g class="cls-20"><polygon class="cls-17" points="86.94 6.38 90.58 10.04 87.6 14.3 83.97 10.64 86.94 6.38"/><polygon class="cls-17" points="80.86 8.17 84.65 11.86 82.79 14.64 79 10.95 80.86 8.17"/><polygon class="cls-17" points="85.2 13.72 87.42 15.95 85.82 18.24 83.6 16.01 85.2 13.72"/><polygon class="cls-17" points="81.33 15.33 82.94 16.96 81.68 18.76 80.07 17.13 81.33 15.33"/><polygon class="cls-17" points="90.07 11.94 93.03 14.91 90.6 18.39 87.64 15.42 90.07 11.94"/><polygon class="cls-17" points="85.83 19.52 86.84 20.54 85.95 21.81 84.94 20.79 85.83 19.52"/></g><g class="cls-21"><polygon class="cls-17" points="91.92 8.09 96.09 11.69 93.56 15.98 89.39 12.38 91.92 8.09"/><polygon class="cls-17" points="95.92 13.69 97.97 15.6 96.48 17.96 94.42 16.05 95.92 13.69"/><polygon class="cls-17" points="88.38 19.77 89.72 20.95 88.72 22.61 87.37 21.43 88.38 19.77"/><polygon class="cls-17" points="89.18 14.18 91.47 16.26 89.62 19.23 87.34 17.15 89.18 14.18"/><polygon class="cls-17" points="86.08 10.8 88.02 12.58 86.69 14.7 84.75 12.92 86.08 10.8"/><polygon class="cls-17" points="98.73 12.1 100.17 13.4 99.23 14.9 97.8 13.6 98.73 12.1"/><polygon class="cls-17" points="86.37 7.25 87.71 8.44 86.71 10.1 85.36 8.92 86.37 7.25"/><polygon class="cls-17" points="93.08 16.56 94.86 18.13 93.53 20.33 91.75 18.76 93.08 16.56"/><polygon class="cls-17" points="96.65 7.69 98 8.87 96.99 10.53 95.65 9.35 96.65 7.69"/></g></g></g></g></svg>